<svg width="46" height="10" viewBox="0 0 46 10" xmlns="http://www.w3.org/2000/svg"><title>Tralalala</title><path d="M7.178.393v1.025h-2.9V9H3.093V1.418h-2.9V.393h6.984zm.515 2.332h1.002V3.81c.082-.212.284-.47.604-.772a1.565 1.565 0 0 1 1.206-.448l.24.023v1.114a1.575 1.575 0 0 0-.346-.03c-.53 0-.94.17-1.224.513a1.79 1.79 0 0 0-.428 1.18V9H7.693V2.725zm5.11 5.326c.222.177.486.264.79.264.372 0 .73-.085 1.08-.257.585-.286.878-.752.878-1.4v-.85c-.128.082-.294.15-.497.205a4.244 4.244 0 0 1-.598.117l-.64.08c-.38.052-.67.132-.86.24-.324.185-.486.478-.486.88 0 .305.11.545.333.72zm2.22-2.853c.243-.03.405-.133.487-.304a.927.927 0 0 0 .07-.405c0-.36-.128-.62-.384-.782-.256-.162-.622-.243-1.098-.243-.55 0-.942.148-1.172.445-.13.164-.213.408-.252.733h-.985c.02-.773.27-1.31.752-1.614.483-.302 1.042-.454 1.68-.454.737 0 1.337.14 1.798.422.457.28.685.72.685 1.313v3.615c0 .11.023.197.068.264.045.066.14.1.284.1a2.533 2.533 0 0 0 .346-.035v.778c-.164.046-.29.075-.375.087a2.74 2.74 0 0 1-.352.018c-.363 0-.627-.13-.79-.387-.087-.137-.147-.33-.182-.58-.215.28-.524.525-.926.732-.403.207-.846.31-1.33.31-.582 0-1.058-.176-1.427-.53-.368-.353-.553-.795-.553-1.326 0-.583.182-1.034.545-1.354.363-.32.84-.518 1.43-.592l1.68-.21zm3.34-4.804h1.055V9h-1.055V.393zm3.78 7.658c.222.177.486.264.79.264.372 0 .73-.085 1.08-.257.585-.286.878-.752.878-1.4v-.85c-.128.082-.294.15-.497.205a4.244 4.244 0 0 1-.598.117l-.64.08c-.382.052-.67.132-.86.24-.324.185-.486.478-.486.88 0 .305.11.545.333.72zm2.22-2.853c.242-.03.405-.133.487-.304a.927.927 0 0 0 .07-.405c0-.36-.128-.62-.384-.782-.256-.162-.622-.243-1.1-.243-.55 0-.94.148-1.17.445-.13.164-.213.408-.252.733h-.985c.02-.773.27-1.31.752-1.614.483-.302 1.042-.454 1.68-.454.737 0 1.337.14 1.798.422.457.28.685.72.685 1.313v3.615c0 .11.023.197.068.264.045.066.14.1.284.1a2.533 2.533 0 0 0 .346-.035v.778c-.164.046-.29.075-.375.087a2.74 2.74 0 0 1-.352.018c-.363 0-.627-.13-.79-.387-.087-.137-.147-.33-.183-.58-.214.28-.523.525-.925.732-.403.207-.846.31-1.33.31-.583 0-1.058-.176-1.427-.53-.368-.353-.553-.795-.553-1.326 0-.583.182-1.034.545-1.354.363-.32.84-.518 1.43-.592l1.68-.21zm3.34-4.804h1.055V9h-1.055V.393zm3.78 7.658c.222.177.486.264.79.264.372 0 .73-.085 1.08-.257.585-.286.877-.752.877-1.4v-.85c-.128.082-.294.15-.498.205a4.244 4.244 0 0 1-.597.117l-.64.08c-.382.052-.67.132-.86.24-.324.185-.487.478-.487.88 0 .305.112.545.334.72zm2.22-2.853c.242-.03.404-.133.486-.304a.927.927 0 0 0 .07-.405c0-.36-.128-.62-.384-.782-.256-.162-.622-.243-1.1-.243-.55 0-.94.148-1.17.445-.13.164-.213.408-.252.733h-.985c.02-.773.27-1.31.752-1.614.482-.302 1.042-.454 1.68-.454.737 0 1.337.14 1.798.422.457.28.685.72.685 1.313v3.615c0 .11.023.197.068.264.044.066.14.1.284.1a2.533 2.533 0 0 0 .346-.035v.778c-.165.046-.29.075-.376.087a2.74 2.74 0 0 1-.35.018c-.364 0-.628-.13-.792-.387-.086-.137-.147-.33-.182-.58-.215.28-.523.525-.926.732-.402.207-.845.31-1.33.31-.582 0-1.057-.176-1.426-.53-.37-.353-.553-.795-.553-1.326 0-.583.182-1.034.545-1.354.363-.32.84-.518 1.43-.592l1.68-.21zm3.34-4.804h1.055V9h-1.055V.393zm3.78 7.658c.222.177.486.264.79.264.37 0 .73-.085 1.078-.257.587-.286.88-.752.88-1.4v-.85c-.13.082-.295.15-.498.205a4.244 4.244 0 0 1-.597.117l-.64.08c-.382.052-.67.132-.86.24-.325.185-.487.478-.487.88 0 .305.112.545.334.72zm2.22-2.853c.242-.03.404-.133.486-.304a.927.927 0 0 0 .07-.405c0-.36-.128-.62-.384-.782-.256-.162-.622-.243-1.1-.243-.55 0-.94.148-1.17.445-.13.164-.214.408-.253.733h-.984c.02-.773.27-1.31.752-1.614.482-.302 1.042-.454 1.68-.454.737 0 1.337.14 1.797.422.456.28.685.72.685 1.313v3.615c0 .11.022.197.067.264.045.066.14.1.285.1a2.533 2.533 0 0 0 .346-.035v.778c-.165.046-.29.075-.376.087a2.74 2.74 0 0 1-.35.018c-.365 0-.628-.13-.792-.387-.086-.137-.147-.33-.182-.58-.215.28-.523.525-.926.732-.402.207-.845.31-1.33.31-.582 0-1.057-.176-1.427-.53-.37-.353-.553-.795-.553-1.326 0-.583.18-1.034.545-1.354.363-.32.84-.518 1.43-.592l1.68-.21z" fill="#000" fill-rule="evenodd"/></svg>