<svg width="720" height="168" viewBox="0 0 720 168" xmlns="http://www.w3.org/2000/svg"><title>Kart</title><g fill="none" fill-rule="evenodd"><g transform="translate(263)"><path fill="#DD1740" d="M97 40h1v76h-1z"/><rect fill="#7A726C" width="194" height="40" rx="4"/><path d="M25.12 13.7v5.95h6.45v.85h-6.45V27h-1.03V12.85h8.48v.85h-7.45zm17.47 3.35L36.87 30.2a.68.68 0 0 1-.155.23c-.063.06-.155.09-.275.09h-.68l1.75-3.89-4.21-9.58h.79a.363.363 0 0 1 .36.24l3.35 7.74c.04.1.075.202.105.305.03.103.058.208.085.315a8.716 8.716 0 0 1 .22-.62l3.31-7.74a.43.43 0 0 1 .14-.175.334.334 0 0 1 .2-.065h.73zm3.04-4.6V27h-.96V12.45h.96zm4.33 0v8.87h.46a.864.864 0 0 0 .265-.04.73.73 0 0 0 .275-.19l3.99-3.79a.758.758 0 0 1 .22-.185.624.624 0 0 1 .3-.065h.84l-4.39 4.17c-.12.14-.25.25-.39.33.107.053.198.115.275.185.077.07.152.152.225.245L56.64 27h-.83a.694.694 0 0 1-.255-.045.498.498 0 0 1-.215-.185l-4.18-4.48a1.285 1.285 0 0 0-.155-.15.693.693 0 0 0-.155-.095.712.712 0 0 0-.185-.05 1.84 1.84 0 0 0-.255-.015h-.45V27H49V12.45h.96zm14.9 8.57a4.28 4.28 0 0 0-.225-1.435A3.045 3.045 0 0 0 64 18.51a2.77 2.77 0 0 0-.975-.675 3.21 3.21 0 0 0-1.245-.235c-.513 0-.973.08-1.38.24a3.02 3.02 0 0 0-1.055.69c-.297.3-.535.66-.715 1.08-.18.42-.3.89-.36 1.41h6.59zm-6.64.61v.19c0 .747.087 1.403.26 1.97.173.567.42 1.042.74 1.425s.707.672 1.16.865c.453.193.96.29 1.52.29.5 0 .933-.055 1.3-.165a4.845 4.845 0 0 0 1.52-.74c.147-.11.253-.165.32-.165a.23.23 0 0 1 .2.1l.26.32c-.16.2-.372.387-.635.56a4.532 4.532 0 0 1-.88.445 6.41 6.41 0 0 1-1.04.295c-.37.073-.742.11-1.115.11-.68 0-1.3-.118-1.86-.355a3.943 3.943 0 0 1-1.44-1.035c-.4-.453-.708-1.008-.925-1.665-.217-.657-.325-1.408-.325-2.255 0-.713.102-1.372.305-1.975a4.523 4.523 0 0 1 .88-1.56 4.01 4.01 0 0 1 1.41-1.025c.557-.247 1.188-.37 1.895-.37.56 0 1.08.097 1.56.29.48.193.897.475 1.25.845s.632.825.835 1.365c.203.54.305 1.16.305 1.86 0 .147-.02.247-.06.3-.04.053-.107.08-.2.08h-7.24zm15.56-3.35a.252.252 0 0 1-.23.14c-.073 0-.167-.042-.28-.125a3.69 3.69 0 0 0-1.16-.56 3.613 3.613 0 0 0-1.02-.125c-.36 0-.688.052-.985.155-.297.103-.55.242-.76.415-.21.173-.372.375-.485.605a1.62 1.62 0 0 0-.17.725c0 .313.08.573.24.78.16.207.368.383.625.53.257.147.552.273.885.38.333.107.672.213 1.015.32.343.107.682.225 1.015.355.333.13.628.292.885.485s.465.43.625.71c.16.28.24.62.24 1.02 0 .433-.077.837-.23 1.21a2.696 2.696 0 0 1-.675.97 3.26 3.26 0 0 1-1.095.65c-.433.16-.93.24-1.49.24-.7 0-1.303-.112-1.81-.335a5.08 5.08 0 0 1-1.36-.875l.22-.34a.362.362 0 0 1 .115-.12.332.332 0 0 1 .175-.04c.087 0 .192.053.315.16.123.107.288.222.495.345.207.123.462.238.765.345.303.107.678.16 1.125.16.42 0 .79-.058 1.11-.175.32-.117.587-.275.8-.475.213-.2.375-.435.485-.705.11-.27.165-.555.165-.855 0-.333-.08-.61-.24-.83-.16-.22-.37-.407-.63-.56a4.403 4.403 0 0 0-.885-.39c-.33-.107-.668-.213-1.015-.32a15.79 15.79 0 0 1-1.015-.35 3.69 3.69 0 0 1-.885-.48 2.315 2.315 0 0 1-.63-.705c-.16-.277-.24-.622-.24-1.035 0-.353.077-.693.23-1.02.153-.327.372-.613.655-.86a3.22 3.22 0 0 1 1.035-.59c.407-.147.863-.22 1.37-.22.607 0 1.145.087 1.615.26.47.173.898.44 1.285.8l-.2.33zm3.94 1.17c.153-.407.328-.768.525-1.085a3.44 3.44 0 0 1 .68-.805c.257-.22.543-.388.86-.505a3.032 3.032 0 0 1 1.055-.175c.207 0 .41.018.61.055.2.037.377.102.53.195l-.08.66c-.033.107-.097.16-.19.16-.08 0-.202-.023-.365-.07a2.418 2.418 0 0 0-.645-.07c-.387 0-.728.058-1.025.175a2.364 2.364 0 0 0-.8.525 3.362 3.362 0 0 0-.62.865 8.16 8.16 0 0 0-.485 1.185V27h-.96v-9.95h.51c.113 0 .193.023.24.07.047.047.077.127.09.24l.07 2.09zm11.52 2.74c-.947.033-1.762.108-2.445.225-.683.117-1.247.275-1.69.475-.443.2-.772.438-.985.715-.213.277-.32.592-.32.945 0 .333.055.622.165.865.11.243.257.443.44.6.183.157.395.272.635.345.24.073.49.11.75.11.387 0 .742-.042 1.065-.125.323-.083.623-.2.9-.35.277-.15.535-.328.775-.535.24-.207.477-.43.71-.67v-2.6zm-5.85-3.73c.52-.52 1.067-.913 1.64-1.18.573-.267 1.223-.4 1.95-.4.533 0 1 .085 1.4.255.4.17.732.413.995.73s.462.7.595 1.15c.133.45.2.952.2 1.505V27h-.38c-.2 0-.323-.093-.37-.28l-.14-1.28a10.44 10.44 0 0 1-.815.72 4.89 4.89 0 0 1-.845.54c-.293.147-.61.26-.95.34-.34.08-.713.12-1.12.12a3.3 3.3 0 0 1-.99-.15c-.32-.1-.605-.253-.855-.46a2.23 2.23 0 0 1-.6-.795c-.15-.323-.225-.712-.225-1.165 0-.42.12-.81.36-1.17.24-.36.617-.673 1.13-.94.513-.267 1.172-.48 1.975-.64.803-.16 1.768-.253 2.895-.28v-1.04c0-.92-.198-1.628-.595-2.125-.397-.497-.985-.745-1.765-.745-.48 0-.888.067-1.225.2-.337.133-.622.28-.855.44a5.39 5.39 0 0 0-.57.44c-.147.133-.27.2-.37.2a.302.302 0 0 1-.18-.05.45.45 0 0 1-.12-.13l-.17-.29zm1.68-4.48a1.553 1.553 0 0 1 .505-1.175 1.792 1.792 0 0 1 1.205-.465 1.813 1.813 0 0 1 1.225.465 1.553 1.553 0 0 1 .505 1.175 1.556 1.556 0 0 1-.505 1.17 1.66 1.66 0 0 1-.55.34c-.21.08-.435.12-.675.12-.233 0-.453-.04-.66-.12a1.672 1.672 0 0 1-.545-.34 1.556 1.556 0 0 1-.505-1.17zm.58 0c0 .333.105.607.315.82.21.213.485.32.825.32.333 0 .607-.107.82-.32.213-.213.32-.487.32-.82 0-.333-.107-.607-.32-.82-.213-.213-.487-.32-.82-.32-.34 0-.615.107-.825.32-.21.213-.315.487-.315.82zm14.49 5.21c-.38-.573-.802-.977-1.265-1.21-.463-.233-.992-.35-1.585-.35-.587 0-1.1.107-1.54.32-.44.213-.808.515-1.105.905-.297.39-.52.857-.67 1.4a6.734 6.734 0 0 0-.225 1.795c0 1.48.272 2.568.815 3.265.543.697 1.328 1.045 2.355 1.045.653 0 1.25-.17 1.79-.51.54-.34 1.017-.817 1.43-1.43v-5.23zm.95-6.74V27h-.52c-.173 0-.273-.087-.3-.26l-.1-1.57c-.44.6-.953 1.077-1.54 1.43a3.763 3.763 0 0 1-1.98.53c-1.227 0-2.18-.423-2.86-1.27-.68-.847-1.02-2.117-1.02-3.81 0-.727.095-1.405.285-2.035.19-.63.468-1.177.835-1.64a3.943 3.943 0 0 1 1.355-1.095c.537-.267 1.155-.4 1.855-.4.673 0 1.257.123 1.75.37.493.247.923.613 1.29 1.1v-5.9h.95zM104.37 27v-9.95h.53c.167 0 .263.083.29.25l.09 1.44c.387-.553.83-1 1.33-1.34.5-.34 1.063-.51 1.69-.51.727 0 1.308.21 1.745.63.437.42.732 1.003.885 1.75.12-.407.288-.76.505-1.06.217-.3.465-.548.745-.745.28-.197.585-.342.915-.435.33-.093.668-.14 1.015-.14.493 0 .937.082 1.33.245.393.163.727.405 1 .725.273.32.483.713.63 1.18.147.467.22 1 .22 1.6V27h-.95v-6.36c0-.973-.21-1.715-.63-2.225-.42-.51-1.02-.765-1.8-.765-.347 0-.678.063-.995.19a2.41 2.41 0 0 0-.84.565c-.243.25-.437.562-.58.935-.143.373-.215.807-.215 1.3V27h-.96v-6.36c0-.967-.192-1.707-.575-2.22-.383-.513-.945-.77-1.685-.77-.54 0-1.04.16-1.5.48-.46.32-.87.763-1.23 1.33V27h-.96zm21.67-4.81c-.947.033-1.762.108-2.445.225-.683.117-1.247.275-1.69.475-.443.2-.772.438-.985.715-.213.277-.32.592-.32.945 0 .333.055.622.165.865.11.243.257.443.44.6.183.157.395.272.635.345.24.073.49.11.75.11.387 0 .742-.042 1.065-.125.323-.083.623-.2.9-.35.277-.15.535-.328.775-.535.24-.207.477-.43.71-.67v-2.6zm-5.85-3.73c.52-.52 1.067-.913 1.64-1.18.573-.267 1.223-.4 1.95-.4.533 0 1 .085 1.4.255.4.17.732.413.995.73s.462.7.595 1.15c.133.45.2.952.2 1.505V27h-.38c-.2 0-.323-.093-.37-.28l-.14-1.28a10.44 10.44 0 0 1-.815.72 4.89 4.89 0 0 1-.845.54c-.293.147-.61.26-.95.34-.34.08-.713.12-1.12.12a3.3 3.3 0 0 1-.99-.15c-.32-.1-.605-.253-.855-.46a2.23 2.23 0 0 1-.6-.795c-.15-.323-.225-.712-.225-1.165 0-.42.12-.81.36-1.17.24-.36.617-.673 1.13-.94.513-.267 1.172-.48 1.975-.64.803-.16 1.768-.253 2.895-.28v-1.04c0-.92-.198-1.628-.595-2.125-.397-.497-.985-.745-1.765-.745-.48 0-.888.067-1.225.2-.337.133-.622.28-.855.44a5.39 5.39 0 0 0-.57.44c-.147.133-.27.2-.37.2a.302.302 0 0 1-.18-.05.45.45 0 0 1-.12-.13l-.17-.29zm10.87.33a5.64 5.64 0 0 1 1.595-1.38 3.972 3.972 0 0 1 2.015-.52c.547 0 1.028.087 1.445.26.417.173.762.423 1.035.75.273.327.48.72.62 1.18.14.46.21.98.21 1.56V27h-.96v-6.36c0-.933-.213-1.665-.64-2.195-.427-.53-1.077-.795-1.95-.795a3.53 3.53 0 0 0-1.815.495c-.563.33-1.065.788-1.505 1.375V27h-.96v-9.95h.53c.167 0 .263.083.29.25l.09 1.49zm11 0a5.64 5.64 0 0 1 1.595-1.38 3.972 3.972 0 0 1 2.015-.52c.547 0 1.028.087 1.445.26.417.173.762.423 1.035.75.273.327.48.72.62 1.18.14.46.21.98.21 1.56V27h-.96v-6.36c0-.933-.213-1.665-.64-2.195-.427-.53-1.077-.795-1.95-.795a3.53 3.53 0 0 0-1.815.495c-.563.33-1.065.788-1.505 1.375V27h-.96v-9.95h.53c.167 0 .263.083.29.25l.09 1.49zm17.07 2.23a4.28 4.28 0 0 0-.225-1.435 3.045 3.045 0 0 0-.635-1.075 2.77 2.77 0 0 0-.975-.675 3.21 3.21 0 0 0-1.245-.235c-.513 0-.973.08-1.38.24a3.02 3.02 0 0 0-1.055.69c-.297.3-.535.66-.715 1.08-.18.42-.3.89-.36 1.41h6.59zm-6.64.61v.19c0 .747.087 1.403.26 1.97.173.567.42 1.042.74 1.425s.707.672 1.16.865c.453.193.96.29 1.52.29.5 0 .933-.055 1.3-.165a4.845 4.845 0 0 0 1.52-.74c.147-.11.253-.165.32-.165a.23.23 0 0 1 .2.1l.26.32c-.16.2-.372.387-.635.56a4.532 4.532 0 0 1-.88.445 6.41 6.41 0 0 1-1.04.295c-.37.073-.742.11-1.115.11-.68 0-1.3-.118-1.86-.355a3.943 3.943 0 0 1-1.44-1.035c-.4-.453-.708-1.008-.925-1.665-.217-.657-.325-1.408-.325-2.255 0-.713.102-1.372.305-1.975a4.523 4.523 0 0 1 .88-1.56 4.01 4.01 0 0 1 1.41-1.025c.557-.247 1.188-.37 1.895-.37.56 0 1.08.097 1.56.29.48.193.897.475 1.25.845s.632.825.835 1.365c.203.54.305 1.16.305 1.86 0 .147-.02.247-.06.3-.04.053-.107.08-.2.08h-7.24zm11-2.84a5.64 5.64 0 0 1 1.595-1.38 3.972 3.972 0 0 1 2.015-.52c.547 0 1.028.087 1.445.26.417.173.762.423 1.035.75.273.327.48.72.62 1.18.14.46.21.98.21 1.56V27h-.96v-6.36c0-.933-.213-1.665-.64-2.195-.427-.53-1.077-.795-1.95-.795a3.53 3.53 0 0 0-1.815.495c-.563.33-1.065.788-1.505 1.375V27h-.96v-9.95h.53c.167 0 .263.083.29.25l.09 1.49z" fill="#FFF"/></g><g transform="translate(84 64)"><rect fill="#F5F2EB" width="270" height="40" rx="4"/><path d="M0 4c0-2.21 1.796-4 4-4h262c2.21 0 4 1.796 4 4v32c0 2.21-1.796 4-4 4H4c-2.21 0-4-1.796-4-4V4zm1-.002A3.003 3.003 0 0 1 4.01 1h261.98A3.01 3.01 0 0 1 269 3.998v32.004A3.003 3.003 0 0 1 265.99 39H4.01A3.01 3.01 0 0 1 1 36.002V3.998z" fill="#B8ADA2"/><path d="M26.51 25.22c.467.34.983.598 1.55.775a6.188 6.188 0 0 0 1.85.265c.847 0 1.62-.143 2.32-.43.7-.287 1.3-.703 1.8-1.25s.887-1.212 1.16-1.995c.273-.783.41-1.672.41-2.665 0-1.013-.143-1.918-.43-2.715-.287-.797-.69-1.468-1.21-2.015l-7.45 10.03zm6.97-10.48a5.286 5.286 0 0 0-1.615-.87c-.597-.2-1.248-.3-1.955-.3-.84 0-1.61.145-2.31.435-.7.29-1.302.708-1.805 1.255-.503.547-.893 1.213-1.17 2-.277.787-.415 1.673-.415 2.66 0 1.067.157 2.008.47 2.825.313.817.757 1.498 1.33 2.045l7.47-10.05zm1.06-.32c.673.633 1.195 1.415 1.565 2.345.37.93.555 1.982.555 3.155 0 1.093-.163 2.085-.49 2.975-.327.89-.787 1.65-1.38 2.28a6.092 6.092 0 0 1-2.135 1.46c-.83.343-1.745.515-2.745.515a7.285 7.285 0 0 1-2.145-.305 6.342 6.342 0 0 1-1.805-.875l-1.31 1.76a.78.78 0 0 1-.63.32h-.43l1.85-2.49c-.72-.64-1.278-1.435-1.675-2.385-.397-.95-.595-2.035-.595-3.255 0-1.087.163-2.075.49-2.965.327-.89.787-1.65 1.38-2.28a6.16 6.16 0 0 1 2.13-1.465c.827-.347 1.74-.52 2.74-.52a7.3 7.3 0 0 1 2.25.335 6.22 6.22 0 0 1 1.87.965l1.11-1.49a.966.966 0 0 1 .205-.23.48.48 0 0 1 .285-.07h.55l-1.64 2.22zm5.67-1.97v8.87h.46a.864.864 0 0 0 .265-.04.73.73 0 0 0 .275-.19l3.99-3.79a.758.758 0 0 1 .22-.185.624.624 0 0 1 .3-.065h.84l-4.39 4.17c-.12.14-.25.25-.39.33.107.053.198.115.275.185.077.07.152.152.225.245L46.89 27h-.83a.694.694 0 0 1-.255-.045.498.498 0 0 1-.215-.185l-4.18-4.48a1.285 1.285 0 0 0-.155-.15.693.693 0 0 0-.155-.095.712.712 0 0 0-.185-.05 1.84 1.84 0 0 0-.255-.015h-.45V27h-.96V12.45h.96zm11.86 4.44c.713 0 1.352.122 1.915.365a3.903 3.903 0 0 1 1.425 1.035c.387.447.682.985.885 1.615.203.63.305 1.335.305 2.115 0 .78-.102 1.483-.305 2.11a4.59 4.59 0 0 1-.885 1.61c-.387.447-.862.79-1.425 1.03-.563.24-1.202.36-1.915.36-.713 0-1.352-.12-1.915-.36a3.9 3.9 0 0 1-1.43-1.03 4.548 4.548 0 0 1-.89-1.61c-.203-.627-.305-1.33-.305-2.11 0-.78.102-1.485.305-2.115.203-.63.5-1.168.89-1.615a3.95 3.95 0 0 1 1.43-1.035c.563-.243 1.202-.365 1.915-.365zm0 9.49c.593 0 1.112-.102 1.555-.305a2.944 2.944 0 0 0 1.11-.875 3.86 3.86 0 0 0 .665-1.375c.147-.537.22-1.138.22-1.805 0-.66-.073-1.26-.22-1.8a3.908 3.908 0 0 0-.665-1.385 2.97 2.97 0 0 0-1.11-.885c-.443-.207-.962-.31-1.555-.31s-1.112.103-1.555.31a2.97 2.97 0 0 0-1.11.885c-.297.383-.52.845-.67 1.385a6.72 6.72 0 0 0-.225 1.8c0 .667.075 1.268.225 1.805.15.537.373.995.67 1.375.297.38.667.672 1.11.875.443.203.962.305 1.555.305zm8.13-7.59a5.64 5.64 0 0 1 1.595-1.38 3.972 3.972 0 0 1 2.015-.52c.547 0 1.028.087 1.445.26.417.173.762.423 1.035.75.273.327.48.72.62 1.18.14.46.21.98.21 1.56V27h-.96v-6.36c0-.933-.213-1.665-.64-2.195-.427-.53-1.077-.795-1.95-.795a3.53 3.53 0 0 0-1.815.495c-.563.33-1.065.788-1.505 1.375V27h-.96v-9.95h.53c.167 0 .263.083.29.25l.09 1.49zm14.03-1.9c.713 0 1.352.122 1.915.365a3.903 3.903 0 0 1 1.425 1.035c.387.447.682.985.885 1.615.203.63.305 1.335.305 2.115 0 .78-.102 1.483-.305 2.11a4.59 4.59 0 0 1-.885 1.61c-.387.447-.862.79-1.425 1.03-.563.24-1.202.36-1.915.36-.713 0-1.352-.12-1.915-.36a3.9 3.9 0 0 1-1.43-1.03 4.548 4.548 0 0 1-.89-1.61c-.203-.627-.305-1.33-.305-2.11 0-.78.102-1.485.305-2.115.203-.63.5-1.168.89-1.615a3.95 3.95 0 0 1 1.43-1.035c.563-.243 1.202-.365 1.915-.365zm0 9.49c.593 0 1.112-.102 1.555-.305a2.944 2.944 0 0 0 1.11-.875 3.86 3.86 0 0 0 .665-1.375c.147-.537.22-1.138.22-1.805 0-.66-.073-1.26-.22-1.8a3.908 3.908 0 0 0-.665-1.385 2.97 2.97 0 0 0-1.11-.885c-.443-.207-.962-.31-1.555-.31s-1.112.103-1.555.31a2.97 2.97 0 0 0-1.11.885c-.297.383-.52.845-.67 1.385a6.72 6.72 0 0 0-.225 1.8c0 .667.075 1.268.225 1.805.15.537.373.995.67 1.375.297.38.667.672 1.11.875.443.203.962.305 1.555.305zm7.22.62v-9.95h.53c.167 0 .263.083.29.25l.09 1.44c.387-.553.83-1 1.33-1.34.5-.34 1.063-.51 1.69-.51.727 0 1.308.21 1.745.63.437.42.732 1.003.885 1.75.12-.407.288-.76.505-1.06.217-.3.465-.548.745-.745.28-.197.585-.342.915-.435.33-.093.668-.14 1.015-.14.493 0 .937.082 1.33.245.393.163.727.405 1 .725.273.32.483.713.63 1.18.147.467.22 1 .22 1.6V27h-.95v-6.36c0-.973-.21-1.715-.63-2.225-.42-.51-1.02-.765-1.8-.765-.347 0-.678.063-.995.19a2.41 2.41 0 0 0-.84.565c-.243.25-.437.562-.58.935-.143.373-.215.807-.215 1.3V27h-.96v-6.36c0-.967-.192-1.707-.575-2.22-.383-.513-.945-.77-1.685-.77-.54 0-1.04.16-1.5.48-.46.32-.87.763-1.23 1.33V27h-.96zm17.16-9.95V27h-.95v-9.95h.95zm.41-3.43a.76.76 0 0 1-.075.335c-.05.103-.115.195-.195.275a.905.905 0 0 1-.28.19.84.84 0 0 1-.34.07.84.84 0 0 1-.34-.07.905.905 0 0 1-.47-.465.875.875 0 0 1 0-.68.89.89 0 0 1 .47-.475.84.84 0 0 1 .34-.07.84.84 0 0 1 .34.07.905.905 0 0 1 .475.475c.05.11.075.225.075.345zm2.72 7.04h4.65v.81h-4.65v-.81zm17.03-3.77c.713 0 1.352.122 1.915.365a3.903 3.903 0 0 1 1.425 1.035c.387.447.682.985.885 1.615.203.63.305 1.335.305 2.115 0 .78-.102 1.483-.305 2.11a4.59 4.59 0 0 1-.885 1.61c-.387.447-.862.79-1.425 1.03-.563.24-1.202.36-1.915.36-.713 0-1.352-.12-1.915-.36a3.9 3.9 0 0 1-1.43-1.03 4.548 4.548 0 0 1-.89-1.61c-.203-.627-.305-1.33-.305-2.11 0-.78.102-1.485.305-2.115.203-.63.5-1.168.89-1.615a3.95 3.95 0 0 1 1.43-1.035c.563-.243 1.202-.365 1.915-.365zm0 9.49c.593 0 1.112-.102 1.555-.305a2.944 2.944 0 0 0 1.11-.875 3.86 3.86 0 0 0 .665-1.375c.147-.537.22-1.138.22-1.805 0-.66-.073-1.26-.22-1.8a3.908 3.908 0 0 0-.665-1.385 2.97 2.97 0 0 0-1.11-.885c-.443-.207-.962-.31-1.555-.31s-1.112.103-1.555.31a2.97 2.97 0 0 0-1.11.885c-.297.383-.52.845-.67 1.385a6.72 6.72 0 0 0-.225 1.8c0 .667.075 1.268.225 1.805.15.537.373.995.67 1.375.297.38.667.672 1.11.875.443.203.962.305 1.555.305zm10.44-3.78a3.27 3.27 0 0 0 1.14-.185c.333-.123.613-.295.84-.515.227-.22.4-.483.52-.79.12-.307.18-.647.18-1.02a2.75 2.75 0 0 0-.185-1.025 2.22 2.22 0 0 0-.53-.795c-.23-.22-.51-.39-.84-.51-.33-.12-.705-.18-1.125-.18-.42 0-.795.06-1.125.18-.33.12-.61.29-.84.51-.23.22-.405.485-.525.795-.12.31-.18.652-.18 1.025 0 .373.06.713.18 1.02.12.307.295.57.525.79.23.22.51.392.84.515.33.123.705.185 1.125.185zm3.72 5.07c0-.313-.082-.565-.245-.755a1.62 1.62 0 0 0-.655-.445 3.893 3.893 0 0 0-.945-.225c-.357-.043-.73-.075-1.12-.095l-1.175-.06a9.28 9.28 0 0 1-1.11-.12 4.56 4.56 0 0 0-.7.345 2.53 2.53 0 0 0-.55.445 1.984 1.984 0 0 0-.36.545c-.087.197-.13.408-.13.635 0 .293.075.565.225.815.15.25.37.467.66.65.29.183.645.328 1.065.435.42.107.903.16 1.45.16a5.62 5.62 0 0 0 1.415-.17 3.94 3.94 0 0 0 1.14-.48c.323-.207.577-.453.76-.74.183-.287.275-.6.275-.94zm1.04-10.18v.33c0 .147-.093.237-.28.27l-1.52.11c.187.253.33.537.43.85.1.313.15.653.15 1.02 0 .48-.085.915-.255 1.305-.17.39-.41.723-.72 1s-.683.492-1.12.645c-.437.153-.918.23-1.445.23a4.422 4.422 0 0 1-1.55-.26c-.28.16-.502.348-.665.565-.163.217-.245.432-.245.645 0 .287.102.507.305.66.203.153.47.265.8.335.33.07.707.115 1.13.135.423.02.855.042 1.295.065.44.023.872.065 1.295.125.423.06.8.165 1.13.315.33.15.597.36.8.63.203.27.305.628.305 1.075 0 .413-.103.81-.31 1.19a3.15 3.15 0 0 1-.895 1.01c-.39.293-.862.528-1.415.705a6.1 6.1 0 0 1-1.86.265c-.7 0-1.313-.072-1.84-.215-.527-.143-.968-.337-1.325-.58a2.54 2.54 0 0 1-.805-.845 2.05 2.05 0 0 1-.27-1.02c0-.527.173-.978.52-1.355.347-.377.82-.672 1.42-.885a1.932 1.932 0 0 1-.805-.495c-.203-.217-.305-.512-.305-.885 0-.14.027-.287.08-.44.053-.153.133-.305.24-.455.107-.15.237-.292.39-.425a2.99 2.99 0 0 1 .52-.36 2.965 2.965 0 0 1-1.105-1.09c-.263-.453-.395-.983-.395-1.59 0-.48.085-.915.255-1.305.17-.39.412-.725.725-1.005.313-.28.688-.497 1.125-.65a4.37 4.37 0 0 1 1.455-.23c.44 0 .845.053 1.215.16.37.107.702.257.995.45h2.55zm11.57-.6c.713 0 1.352.122 1.915.365a3.903 3.903 0 0 1 1.425 1.035c.387.447.682.985.885 1.615.203.63.305 1.335.305 2.115 0 .78-.102 1.483-.305 2.11a4.59 4.59 0 0 1-.885 1.61c-.387.447-.862.79-1.425 1.03-.563.24-1.202.36-1.915.36-.713 0-1.352-.12-1.915-.36a3.9 3.9 0 0 1-1.43-1.03 4.548 4.548 0 0 1-.89-1.61c-.203-.627-.305-1.33-.305-2.11 0-.78.102-1.485.305-2.115.203-.63.5-1.168.89-1.615a3.95 3.95 0 0 1 1.43-1.035c.563-.243 1.202-.365 1.915-.365zm0 9.49c.593 0 1.112-.102 1.555-.305a2.944 2.944 0 0 0 1.11-.875 3.86 3.86 0 0 0 .665-1.375c.147-.537.22-1.138.22-1.805 0-.66-.073-1.26-.22-1.8a3.908 3.908 0 0 0-.665-1.385 2.97 2.97 0 0 0-1.11-.885c-.443-.207-.962-.31-1.555-.31s-1.112.103-1.555.31a2.97 2.97 0 0 0-1.11.885c-.297.383-.52.845-.67 1.385a6.72 6.72 0 0 0-.225 1.8c0 .667.075 1.268.225 1.805.15.537.373.995.67 1.375.297.38.667.672 1.11.875.443.203.962.305 1.555.305zm8.13-6.93c.153-.407.328-.768.525-1.085a3.44 3.44 0 0 1 .68-.805c.257-.22.543-.388.86-.505a3.032 3.032 0 0 1 1.055-.175c.207 0 .41.018.61.055.2.037.377.102.53.195l-.08.66c-.033.107-.097.16-.19.16-.08 0-.202-.023-.365-.07a2.418 2.418 0 0 0-.645-.07c-.387 0-.728.058-1.025.175a2.364 2.364 0 0 0-.8.525 3.362 3.362 0 0 0-.62.865 8.16 8.16 0 0 0-.485 1.185V27h-.96v-9.95h.51c.113 0 .193.023.24.07.047.047.077.127.09.24l.07 2.09zm9.03 3.15a3.27 3.27 0 0 0 1.14-.185c.333-.123.613-.295.84-.515.227-.22.4-.483.52-.79.12-.307.18-.647.18-1.02a2.75 2.75 0 0 0-.185-1.025 2.22 2.22 0 0 0-.53-.795c-.23-.22-.51-.39-.84-.51-.33-.12-.705-.18-1.125-.18-.42 0-.795.06-1.125.18-.33.12-.61.29-.84.51-.23.22-.405.485-.525.795-.12.31-.18.652-.18 1.025 0 .373.06.713.18 1.02.12.307.295.57.525.79.23.22.51.392.84.515.33.123.705.185 1.125.185zm3.72 5.07c0-.313-.082-.565-.245-.755a1.62 1.62 0 0 0-.655-.445 3.893 3.893 0 0 0-.945-.225c-.357-.043-.73-.075-1.12-.095l-1.175-.06a9.28 9.28 0 0 1-1.11-.12 4.56 4.56 0 0 0-.7.345 2.53 2.53 0 0 0-.55.445 1.984 1.984 0 0 0-.36.545c-.087.197-.13.408-.13.635 0 .293.075.565.225.815.15.25.37.467.66.65.29.183.645.328 1.065.435.42.107.903.16 1.45.16a5.62 5.62 0 0 0 1.415-.17 3.94 3.94 0 0 0 1.14-.48c.323-.207.577-.453.76-.74.183-.287.275-.6.275-.94zm1.04-10.18v.33c0 .147-.093.237-.28.27l-1.52.11c.187.253.33.537.43.85.1.313.15.653.15 1.02 0 .48-.085.915-.255 1.305-.17.39-.41.723-.72 1s-.683.492-1.12.645c-.437.153-.918.23-1.445.23a4.422 4.422 0 0 1-1.55-.26c-.28.16-.502.348-.665.565-.163.217-.245.432-.245.645 0 .287.102.507.305.66.203.153.47.265.8.335.33.07.707.115 1.13.135.423.02.855.042 1.295.065.44.023.872.065 1.295.125.423.06.8.165 1.13.315.33.15.597.36.8.63.203.27.305.628.305 1.075 0 .413-.103.81-.31 1.19a3.15 3.15 0 0 1-.895 1.01c-.39.293-.862.528-1.415.705a6.1 6.1 0 0 1-1.86.265c-.7 0-1.313-.072-1.84-.215-.527-.143-.968-.337-1.325-.58a2.54 2.54 0 0 1-.805-.845 2.05 2.05 0 0 1-.27-1.02c0-.527.173-.978.52-1.355.347-.377.82-.672 1.42-.885a1.932 1.932 0 0 1-.805-.495c-.203-.217-.305-.512-.305-.885 0-.14.027-.287.08-.44.053-.153.133-.305.24-.455.107-.15.237-.292.39-.425a2.99 2.99 0 0 1 .52-.36 2.965 2.965 0 0 1-1.105-1.09c-.263-.453-.395-.983-.395-1.59 0-.48.085-.915.255-1.305.17-.39.412-.725.725-1.005.313-.28.688-.497 1.125-.65a4.37 4.37 0 0 1 1.455-.23c.44 0 .845.053 1.215.16.37.107.702.257.995.45h2.55zm7.77 4.7c-.947.033-1.762.108-2.445.225-.683.117-1.247.275-1.69.475-.443.2-.772.438-.985.715-.213.277-.32.592-.32.945 0 .333.055.622.165.865.11.243.257.443.44.6.183.157.395.272.635.345.24.073.49.11.75.11.387 0 .742-.042 1.065-.125.323-.083.623-.2.9-.35.277-.15.535-.328.775-.535.24-.207.477-.43.71-.67v-2.6zm-5.85-3.73c.52-.52 1.067-.913 1.64-1.18.573-.267 1.223-.4 1.95-.4.533 0 1 .085 1.4.255.4.17.732.413.995.73s.462.7.595 1.15c.133.45.2.952.2 1.505V27h-.38c-.2 0-.323-.093-.37-.28l-.14-1.28a10.44 10.44 0 0 1-.815.72 4.89 4.89 0 0 1-.845.54c-.293.147-.61.26-.95.34-.34.08-.713.12-1.12.12a3.3 3.3 0 0 1-.99-.15c-.32-.1-.605-.253-.855-.46a2.23 2.23 0 0 1-.6-.795c-.15-.323-.225-.712-.225-1.165 0-.42.12-.81.36-1.17.24-.36.617-.673 1.13-.94.513-.267 1.172-.48 1.975-.64.803-.16 1.768-.253 2.895-.28v-1.04c0-.92-.198-1.628-.595-2.125-.397-.497-.985-.745-1.765-.745-.48 0-.888.067-1.225.2-.337.133-.622.28-.855.44a5.39 5.39 0 0 0-.57.44c-.147.133-.27.2-.37.2a.302.302 0 0 1-.18-.05.45.45 0 0 1-.12-.13l-.17-.29zm10.87.33a5.64 5.64 0 0 1 1.595-1.38 3.972 3.972 0 0 1 2.015-.52c.547 0 1.028.087 1.445.26.417.173.762.423 1.035.75.273.327.48.72.62 1.18.14.46.21.98.21 1.56V27h-.96v-6.36c0-.933-.213-1.665-.64-2.195-.427-.53-1.077-.795-1.95-.795a3.53 3.53 0 0 0-1.815.495c-.563.33-1.065.788-1.505 1.375V27h-.96v-9.95h.53c.167 0 .263.083.29.25l.09 1.49zm11.15-1.74V27h-.95v-9.95h.95zm.41-3.43a.76.76 0 0 1-.075.335c-.05.103-.115.195-.195.275a.905.905 0 0 1-.28.19.84.84 0 0 1-.34.07.84.84 0 0 1-.34-.07.905.905 0 0 1-.47-.465.875.875 0 0 1 0-.68.89.89 0 0 1 .47-.475.84.84 0 0 1 .34-.07.84.84 0 0 1 .34.07.905.905 0 0 1 .475.475c.05.11.075.225.075.345zm8.45 4.66a.252.252 0 0 1-.23.14c-.073 0-.167-.042-.28-.125a3.69 3.69 0 0 0-1.16-.56 3.613 3.613 0 0 0-1.02-.125c-.36 0-.688.052-.985.155-.297.103-.55.242-.76.415-.21.173-.372.375-.485.605a1.62 1.62 0 0 0-.17.725c0 .313.08.573.24.78.16.207.368.383.625.53.257.147.552.273.885.38.333.107.672.213 1.015.32.343.107.682.225 1.015.355.333.13.628.292.885.485s.465.43.625.71c.16.28.24.62.24 1.02 0 .433-.077.837-.23 1.21a2.696 2.696 0 0 1-.675.97 3.26 3.26 0 0 1-1.095.65c-.433.16-.93.24-1.49.24-.7 0-1.303-.112-1.81-.335a5.08 5.08 0 0 1-1.36-.875l.22-.34a.362.362 0 0 1 .115-.12.332.332 0 0 1 .175-.04c.087 0 .192.053.315.16.123.107.288.222.495.345.207.123.462.238.765.345.303.107.678.16 1.125.16.42 0 .79-.058 1.11-.175.32-.117.587-.275.8-.475.213-.2.375-.435.485-.705.11-.27.165-.555.165-.855 0-.333-.08-.61-.24-.83-.16-.22-.37-.407-.63-.56a4.403 4.403 0 0 0-.885-.39c-.33-.107-.668-.213-1.015-.32a15.79 15.79 0 0 1-1.015-.35 3.69 3.69 0 0 1-.885-.48 2.315 2.315 0 0 1-.63-.705c-.16-.277-.24-.622-.24-1.035 0-.353.077-.693.23-1.02.153-.327.372-.613.655-.86a3.22 3.22 0 0 1 1.035-.59c.407-.147.863-.22 1.37-.22.607 0 1.145.087 1.615.26.47.173.898.44 1.285.8l-.2.33zm8.6 3.91c-.947.033-1.762.108-2.445.225-.683.117-1.247.275-1.69.475-.443.2-.772.438-.985.715-.213.277-.32.592-.32.945 0 .333.055.622.165.865.11.243.257.443.44.6.183.157.395.272.635.345.24.073.49.11.75.11.387 0 .742-.042 1.065-.125.323-.083.623-.2.9-.35.277-.15.535-.328.775-.535.24-.207.477-.43.71-.67v-2.6zm-5.85-3.73c.52-.52 1.067-.913 1.64-1.18.573-.267 1.223-.4 1.95-.4.533 0 1 .085 1.4.255.4.17.732.413.995.73s.462.7.595 1.15c.133.45.2.952.2 1.505V27h-.38c-.2 0-.323-.093-.37-.28l-.14-1.28a10.44 10.44 0 0 1-.815.72 4.89 4.89 0 0 1-.845.54c-.293.147-.61.26-.95.34-.34.08-.713.12-1.12.12a3.3 3.3 0 0 1-.99-.15c-.32-.1-.605-.253-.855-.46a2.23 2.23 0 0 1-.6-.795c-.15-.323-.225-.712-.225-1.165 0-.42.12-.81.36-1.17.24-.36.617-.673 1.13-.94.513-.267 1.172-.48 1.975-.64.803-.16 1.768-.253 2.895-.28v-1.04c0-.92-.198-1.628-.595-2.125-.397-.497-.985-.745-1.765-.745-.48 0-.888.067-1.225.2-.337.133-.622.28-.855.44a5.39 5.39 0 0 0-.57.44c-.147.133-.27.2-.37.2a.302.302 0 0 1-.18-.05.45.45 0 0 1-.12-.13l-.17-.29zm15.43-.18a.252.252 0 0 1-.23.14c-.073 0-.167-.042-.28-.125a3.69 3.69 0 0 0-1.16-.56 3.613 3.613 0 0 0-1.02-.125c-.36 0-.688.052-.985.155-.297.103-.55.242-.76.415-.21.173-.372.375-.485.605a1.62 1.62 0 0 0-.17.725c0 .313.08.573.24.78.16.207.368.383.625.53.257.147.552.273.885.38.333.107.672.213 1.015.32.343.107.682.225 1.015.355.333.13.628.292.885.485s.465.43.625.71c.16.28.24.62.24 1.02 0 .433-.077.837-.23 1.21a2.696 2.696 0 0 1-.675.97 3.26 3.26 0 0 1-1.095.65c-.433.16-.93.24-1.49.24-.7 0-1.303-.112-1.81-.335a5.08 5.08 0 0 1-1.36-.875l.22-.34a.362.362 0 0 1 .115-.12.332.332 0 0 1 .175-.04c.087 0 .192.053.315.16.123.107.288.222.495.345.207.123.462.238.765.345.303.107.678.16 1.125.16.42 0 .79-.058 1.11-.175.32-.117.587-.275.8-.475.213-.2.375-.435.485-.705.11-.27.165-.555.165-.855 0-.333-.08-.61-.24-.83-.16-.22-.37-.407-.63-.56a4.403 4.403 0 0 0-.885-.39c-.33-.107-.668-.213-1.015-.32a15.79 15.79 0 0 1-1.015-.35 3.69 3.69 0 0 1-.885-.48 2.315 2.315 0 0 1-.63-.705c-.16-.277-.24-.622-.24-1.035 0-.353.077-.693.23-1.02.153-.327.372-.613.655-.86a3.22 3.22 0 0 1 1.035-.59c.407-.147.863-.22 1.37-.22.607 0 1.145.087 1.615.26.47.173.898.44 1.285.8l-.2.33zm4.09-1.23v11.22c0 .347-.05.667-.15.96a2.16 2.16 0 0 1-.445.765 2.04 2.04 0 0 1-.74.51 2.71 2.71 0 0 1-1.045.185c-.193 0-.367-.017-.52-.05a1.912 1.912 0 0 1-.45-.16l.05-.48c.02-.06.047-.095.08-.105a.303.303 0 0 1 .135 0l.215.04c.087.017.197.025.33.025.54 0 .94-.147 1.2-.44.26-.293.39-.71.39-1.25V17.05h.95zm.41-3.43a.76.76 0 0 1-.075.335.955.955 0 0 1-.485.465.84.84 0 0 1-.34.07.84.84 0 0 1-.34-.07.905.905 0 0 1-.47-.465.875.875 0 0 1 0-.68.89.89 0 0 1 .47-.475.84.84 0 0 1 .34-.07.84.84 0 0 1 .34.07.97.97 0 0 1 .285.19c.083.08.15.175.2.285.05.11.075.225.075.345zm6.92 3.27c.713 0 1.352.122 1.915.365a3.903 3.903 0 0 1 1.425 1.035c.387.447.682.985.885 1.615.203.63.305 1.335.305 2.115 0 .78-.102 1.483-.305 2.11a4.59 4.59 0 0 1-.885 1.61c-.387.447-.862.79-1.425 1.03-.563.24-1.202.36-1.915.36-.713 0-1.352-.12-1.915-.36a3.9 3.9 0 0 1-1.43-1.03 4.548 4.548 0 0 1-.89-1.61c-.203-.627-.305-1.33-.305-2.11 0-.78.102-1.485.305-2.115.203-.63.5-1.168.89-1.615a3.95 3.95 0 0 1 1.43-1.035c.563-.243 1.202-.365 1.915-.365zm0 9.49c.593 0 1.112-.102 1.555-.305a2.944 2.944 0 0 0 1.11-.875 3.86 3.86 0 0 0 .665-1.375c.147-.537.22-1.138.22-1.805 0-.66-.073-1.26-.22-1.8a3.908 3.908 0 0 0-.665-1.385 2.97 2.97 0 0 0-1.11-.885c-.443-.207-.962-.31-1.555-.31s-1.112.103-1.555.31a2.97 2.97 0 0 0-1.11.885c-.297.383-.52.845-.67 1.385a6.72 6.72 0 0 0-.225 1.8c0 .667.075 1.268.225 1.805.15.537.373.995.67 1.375.297.38.667.672 1.11.875.443.203.962.305 1.555.305zm8.13-7.59a5.64 5.64 0 0 1 1.595-1.38 3.972 3.972 0 0 1 2.015-.52c.547 0 1.028.087 1.445.26.417.173.762.423 1.035.75.273.327.48.72.62 1.18.14.46.21.98.21 1.56V27h-.96v-6.36c0-.933-.213-1.665-.64-2.195-.427-.53-1.077-.795-1.95-.795a3.53 3.53 0 0 0-1.815.495c-.563.33-1.065.788-1.505 1.375V27h-.96v-9.95h.53c.167 0 .263.083.29.25l.09 1.49z" fill="#1A171B"/><rect fill="#F5F2EB" x="282" width="214" height="40" rx="4"/><path d="M282 4c0-2.21 1.786-4 4.002-4h205.996A4.004 4.004 0 0 1 496 4v32c0 2.21-1.786 4-4.002 4H286.002A4.004 4.004 0 0 1 282 36V4zm1-.002A2.996 2.996 0 0 1 285.997 1h206.006A3.004 3.004 0 0 1 495 3.998v32.004A2.996 2.996 0 0 1 492.003 39H285.997A3.004 3.004 0 0 1 283 36.002V3.998z" fill="#B8ADA2"/><rect fill="#F5F2EB" x="508" width="121" height="40" rx="4"/><path d="M508 4a4 4 0 0 1 3.99-4h113.02A4 4 0 0 1 629 4v32a4 4 0 0 1-3.99 4H511.99a4 4 0 0 1-3.99-4V4zm1-.002A2.995 2.995 0 0 1 512 1h113c1.656 0 3 1.352 3 2.998v32.004A2.995 2.995 0 0 1 625 39H512c-1.656 0-3-1.352-3-2.998V3.998z" fill="#B8ADA2"/><path d="M312.67 26.18c1.24 0 2.178-.268 2.815-.805s.955-1.292.955-2.265c0-.447-.085-.848-.255-1.205a2.517 2.517 0 0 0-.735-.91 3.42 3.42 0 0 0-1.18-.575 5.793 5.793 0 0 0-1.59-.2h-3.56v5.96h3.55zm-3.55-12.52v5.81h3.06c.653 0 1.212-.083 1.675-.25.463-.167.843-.387 1.14-.66.297-.273.515-.583.655-.93.14-.347.21-.703.21-1.07 0-.953-.302-1.675-.905-2.165s-1.535-.735-2.795-.735h-3.04zm3.04-.81c.807 0 1.507.08 2.1.24.593.16 1.083.395 1.47.705.387.31.673.688.86 1.135.187.447.28.953.28 1.52 0 .373-.065.733-.195 1.08-.13.347-.317.667-.56.96a3.55 3.55 0 0 1-.9.765 4.346 4.346 0 0 1-1.225.495c1.113.16 1.968.528 2.565 1.105s.895 1.335.895 2.275c0 .6-.107 1.14-.32 1.62-.213.48-.523.887-.93 1.22-.407.333-.907.588-1.5.765-.593.177-1.267.265-2.02.265h-4.59V12.85h4.07zm15.87 4.2l-5.72 13.15a.68.68 0 0 1-.155.23c-.063.06-.155.09-.275.09h-.68l1.75-3.89-4.21-9.58h.79a.363.363 0 0 1 .36.24l3.35 7.74c.04.1.075.202.105.305.03.103.058.208.085.315a8.715 8.715 0 0 1 .22-.62l3.31-7.74a.43.43 0 0 1 .14-.175.334.334 0 0 1 .2-.065h.73zm2.95 7.78c.387.573.812.975 1.275 1.205.463.23.985.345 1.565.345.593 0 1.112-.107 1.555-.32a2.982 2.982 0 0 0 1.11-.915c.297-.397.518-.878.665-1.445.147-.567.22-1.203.22-1.91 0-1.373-.273-2.407-.82-3.1-.547-.693-1.313-1.04-2.3-1.04-.707 0-1.323.17-1.85.51-.527.34-1 .813-1.42 1.42v5.25zm0-6.05a5.02 5.02 0 0 1 1.52-1.385c.58-.337 1.253-.505 2.02-.505.6 0 1.137.11 1.61.33.473.22.875.537 1.205.95.33.413.582.922.755 1.525.173.603.26 1.288.26 2.055 0 .807-.097 1.542-.29 2.205-.193.663-.475 1.23-.845 1.7s-.822.833-1.355 1.09c-.533.257-1.143.385-1.83.385-.707 0-1.308-.135-1.805-.405-.497-.27-.925-.672-1.285-1.205l-.07 1.23c-.02.167-.11.25-.27.25h-.58V12.45h.96v6.33zm15.63 3.41c-.947.033-1.762.108-2.445.225-.683.117-1.247.275-1.69.475-.443.2-.772.438-.985.715-.213.277-.32.592-.32.945 0 .333.055.622.165.865.11.243.257.443.44.6.183.157.395.272.635.345.24.073.49.11.75.11.387 0 .742-.042 1.065-.125.323-.083.623-.2.9-.35.277-.15.535-.328.775-.535.24-.207.477-.43.71-.67v-2.6zm-5.85-3.73c.52-.52 1.067-.913 1.64-1.18.573-.267 1.223-.4 1.95-.4.533 0 1 .085 1.4.255.4.17.732.413.995.73s.462.7.595 1.15c.133.45.2.952.2 1.505V27h-.38c-.2 0-.323-.093-.37-.28l-.14-1.28a10.44 10.44 0 0 1-.815.72 4.89 4.89 0 0 1-.845.54c-.293.147-.61.26-.95.34-.34.08-.713.12-1.12.12a3.3 3.3 0 0 1-.99-.15c-.32-.1-.605-.253-.855-.46a2.23 2.23 0 0 1-.6-.795c-.15-.323-.225-.712-.225-1.165 0-.42.12-.81.36-1.17.24-.36.617-.673 1.13-.94.513-.267 1.172-.48 1.975-.64.803-.16 1.768-.253 2.895-.28v-1.04c0-.92-.198-1.628-.595-2.125-.397-.497-.985-.745-1.765-.745-.48 0-.888.067-1.225.2-.337.133-.622.28-.855.44a5.39 5.39 0 0 0-.57.44c-.147.133-.27.2-.37.2a.302.302 0 0 1-.18-.05.45.45 0 0 1-.12-.13l-.17-.29zm10.87.33a5.64 5.64 0 0 1 1.595-1.38 3.972 3.972 0 0 1 2.015-.52c.547 0 1.028.087 1.445.26.417.173.762.423 1.035.75.273.327.48.72.62 1.18.14.46.21.98.21 1.56V27h-.96v-6.36c0-.933-.213-1.665-.64-2.195-.427-.53-1.077-.795-1.95-.795a3.53 3.53 0 0 0-1.815.495c-.563.33-1.065.788-1.505 1.375V27h-.96v-9.95h.53c.167 0 .263.083.29.25l.09 1.49zm17.07 2.23a4.28 4.28 0 0 0-.225-1.435 3.045 3.045 0 0 0-.635-1.075 2.77 2.77 0 0 0-.975-.675 3.21 3.21 0 0 0-1.245-.235c-.513 0-.973.08-1.38.24a3.02 3.02 0 0 0-1.055.69c-.297.3-.535.66-.715 1.08-.18.42-.3.89-.36 1.41h6.59zm-6.64.61v.19c0 .747.087 1.403.26 1.97.173.567.42 1.042.74 1.425s.707.672 1.16.865c.453.193.96.29 1.52.29.5 0 .933-.055 1.3-.165a4.845 4.845 0 0 0 1.52-.74c.147-.11.253-.165.32-.165a.23.23 0 0 1 .2.1l.26.32c-.16.2-.372.387-.635.56a4.532 4.532 0 0 1-.88.445 6.41 6.41 0 0 1-1.04.295c-.37.073-.742.11-1.115.11-.68 0-1.3-.118-1.86-.355a3.943 3.943 0 0 1-1.44-1.035c-.4-.453-.708-1.008-.925-1.665-.217-.657-.325-1.408-.325-2.255 0-.713.102-1.372.305-1.975a4.523 4.523 0 0 1 .88-1.56 4.01 4.01 0 0 1 1.41-1.025c.557-.247 1.188-.37 1.895-.37.56 0 1.08.097 1.56.29.48.193.897.475 1.25.845s.632.825.835 1.365c.203.54.305 1.16.305 1.86 0 .147-.02.247-.06.3-.04.053-.107.08-.2.08h-7.24zm11-2.84a5.64 5.64 0 0 1 1.595-1.38 3.972 3.972 0 0 1 2.015-.52c.547 0 1.028.087 1.445.26.417.173.762.423 1.035.75.273.327.48.72.62 1.18.14.46.21.98.21 1.56V27h-.96v-6.36c0-.933-.213-1.665-.64-2.195-.427-.53-1.077-.795-1.95-.795a3.53 3.53 0 0 0-1.815.495c-.563.33-1.065.788-1.505 1.375V27h-.96v-9.95h.53c.167 0 .263.083.29.25l.09 1.49zm23.24-1.74V27h-.53c-.167 0-.263-.087-.29-.26l-.09-1.48a5.64 5.64 0 0 1-1.595 1.38 3.972 3.972 0 0 1-2.015.52c-.553 0-1.037-.087-1.45-.26a2.66 2.66 0 0 1-1.03-.75 3.32 3.32 0 0 1-.62-1.18c-.14-.46-.21-.98-.21-1.56v-6.36h.96v6.36c0 .933.213 1.665.64 2.195.427.53 1.077.795 1.95.795a3.53 3.53 0 0 0 1.815-.495c.563-.33 1.065-.788 1.505-1.375v-7.48h.96zm5.99 10.11c-.673 0-1.198-.187-1.575-.56-.377-.373-.565-.95-.565-1.73v-6.8h-1.43a.267.267 0 0 1-.18-.06.212.212 0 0 1-.07-.17v-.37l1.7-.12.24-3.56a.363.363 0 0 1 .08-.16.212.212 0 0 1 .17-.07h.45v3.8h3.14v.71h-3.14v6.75c0 .273.035.508.105.705.07.197.167.358.29.485.123.127.268.22.435.28.167.06.347.09.54.09.24 0 .447-.035.62-.105a2.57 2.57 0 0 0 .45-.23c.127-.083.23-.16.31-.23.08-.07.143-.105.19-.105.053 0 .107.033.16.1l.26.42c-.253.28-.575.505-.965.675a3.01 3.01 0 0 1-1.215.255zm5.09-2.33c.387.573.812.975 1.275 1.205.463.23.985.345 1.565.345.593 0 1.112-.107 1.555-.32a2.982 2.982 0 0 0 1.11-.915c.297-.397.518-.878.665-1.445.147-.567.22-1.203.22-1.91 0-1.373-.273-2.407-.82-3.1-.547-.693-1.313-1.04-2.3-1.04-.707 0-1.323.17-1.85.51-.527.34-1 .813-1.42 1.42v5.25zm0-6.05a5.02 5.02 0 0 1 1.52-1.385c.58-.337 1.253-.505 2.02-.505.6 0 1.137.11 1.61.33.473.22.875.537 1.205.95.33.413.582.922.755 1.525.173.603.26 1.288.26 2.055 0 .807-.097 1.542-.29 2.205-.193.663-.475 1.23-.845 1.7s-.822.833-1.355 1.09c-.533.257-1.143.385-1.83.385-.707 0-1.308-.135-1.805-.405-.497-.27-.925-.672-1.285-1.205l-.07 1.23c-.02.167-.11.25-.27.25h-.58V12.45h.96v6.33zm17.87-1.73l-5.72 13.15a.68.68 0 0 1-.155.23c-.063.06-.155.09-.275.09h-.68l1.75-3.89-4.21-9.58h.79a.363.363 0 0 1 .36.24l3.35 7.74c.04.1.075.202.105.305.03.103.058.208.085.315a8.715 8.715 0 0 1 .22-.62l3.31-7.74a.43.43 0 0 1 .14-.175.334.334 0 0 1 .2-.065h.73zm5.04 5.55a3.27 3.27 0 0 0 1.14-.185c.333-.123.613-.295.84-.515.227-.22.4-.483.52-.79.12-.307.18-.647.18-1.02a2.75 2.75 0 0 0-.185-1.025 2.22 2.22 0 0 0-.53-.795c-.23-.22-.51-.39-.84-.51-.33-.12-.705-.18-1.125-.18-.42 0-.795.06-1.125.18-.33.12-.61.29-.84.51-.23.22-.405.485-.525.795-.12.31-.18.652-.18 1.025 0 .373.06.713.18 1.02.12.307.295.57.525.79.23.22.51.392.84.515.33.123.705.185 1.125.185zm3.72 5.07c0-.313-.082-.565-.245-.755a1.62 1.62 0 0 0-.655-.445 3.893 3.893 0 0 0-.945-.225c-.357-.043-.73-.075-1.12-.095l-1.175-.06a9.28 9.28 0 0 1-1.11-.12 4.56 4.56 0 0 0-.7.345 2.53 2.53 0 0 0-.55.445 1.984 1.984 0 0 0-.36.545c-.087.197-.13.408-.13.635 0 .293.075.565.225.815.15.25.37.467.66.65.29.183.645.328 1.065.435.42.107.903.16 1.45.16a5.62 5.62 0 0 0 1.415-.17 3.94 3.94 0 0 0 1.14-.48c.323-.207.577-.453.76-.74.183-.287.275-.6.275-.94zm1.04-10.18v.33c0 .147-.093.237-.28.27l-1.52.11c.187.253.33.537.43.85.1.313.15.653.15 1.02 0 .48-.085.915-.255 1.305-.17.39-.41.723-.72 1s-.683.492-1.12.645c-.437.153-.918.23-1.445.23a4.422 4.422 0 0 1-1.55-.26c-.28.16-.502.348-.665.565-.163.217-.245.432-.245.645 0 .287.102.507.305.66.203.153.47.265.8.335.33.07.707.115 1.13.135.423.02.855.042 1.295.065.44.023.872.065 1.295.125.423.06.8.165 1.13.315.33.15.597.36.8.63.203.27.305.628.305 1.075 0 .413-.103.81-.31 1.19a3.15 3.15 0 0 1-.895 1.01c-.39.293-.862.528-1.415.705a6.1 6.1 0 0 1-1.86.265c-.7 0-1.313-.072-1.84-.215-.527-.143-.968-.337-1.325-.58a2.54 2.54 0 0 1-.805-.845 2.05 2.05 0 0 1-.27-1.02c0-.527.173-.978.52-1.355.347-.377.82-.672 1.42-.885a1.932 1.932 0 0 1-.805-.495c-.203-.217-.305-.512-.305-.885 0-.14.027-.287.08-.44.053-.153.133-.305.24-.455.107-.15.237-.292.39-.425a2.99 2.99 0 0 1 .52-.36 2.965 2.965 0 0 1-1.105-1.09c-.263-.453-.395-.983-.395-1.59 0-.48.085-.915.255-1.305.17-.39.412-.725.725-1.005.313-.28.688-.497 1.125-.65a4.37 4.37 0 0 1 1.455-.23c.44 0 .845.053 1.215.16.37.107.702.257.995.45h2.55zm5.39 5.11a3.27 3.27 0 0 0 1.14-.185c.333-.123.613-.295.84-.515.227-.22.4-.483.52-.79.12-.307.18-.647.18-1.02a2.75 2.75 0 0 0-.185-1.025 2.22 2.22 0 0 0-.53-.795c-.23-.22-.51-.39-.84-.51-.33-.12-.705-.18-1.125-.18-.42 0-.795.06-1.125.18-.33.12-.61.29-.84.51-.23.22-.405.485-.525.795-.12.31-.18.652-.18 1.025 0 .373.06.713.18 1.02.12.307.295.57.525.79.23.22.51.392.84.515.33.123.705.185 1.125.185zm3.72 5.07c0-.313-.082-.565-.245-.755a1.62 1.62 0 0 0-.655-.445 3.893 3.893 0 0 0-.945-.225c-.357-.043-.73-.075-1.12-.095l-1.175-.06a9.28 9.28 0 0 1-1.11-.12 4.56 4.56 0 0 0-.7.345 2.53 2.53 0 0 0-.55.445 1.984 1.984 0 0 0-.36.545c-.087.197-.13.408-.13.635 0 .293.075.565.225.815.15.25.37.467.66.65.29.183.645.328 1.065.435.42.107.903.16 1.45.16a5.62 5.62 0 0 0 1.415-.17 3.94 3.94 0 0 0 1.14-.48c.323-.207.577-.453.76-.74.183-.287.275-.6.275-.94zm1.04-10.18v.33c0 .147-.093.237-.28.27l-1.52.11c.187.253.33.537.43.85.1.313.15.653.15 1.02 0 .48-.085.915-.255 1.305-.17.39-.41.723-.72 1s-.683.492-1.12.645c-.437.153-.918.23-1.445.23a4.422 4.422 0 0 1-1.55-.26c-.28.16-.502.348-.665.565-.163.217-.245.432-.245.645 0 .287.102.507.305.66.203.153.47.265.8.335.33.07.707.115 1.13.135.423.02.855.042 1.295.065.44.023.872.065 1.295.125.423.06.8.165 1.13.315.33.15.597.36.8.63.203.27.305.628.305 1.075 0 .413-.103.81-.31 1.19a3.15 3.15 0 0 1-.895 1.01c-.39.293-.862.528-1.415.705a6.1 6.1 0 0 1-1.86.265c-.7 0-1.313-.072-1.84-.215-.527-.143-.968-.337-1.325-.58a2.54 2.54 0 0 1-.805-.845 2.05 2.05 0 0 1-.27-1.02c0-.527.173-.978.52-1.355.347-.377.82-.672 1.42-.885a1.932 1.932 0 0 1-.805-.495c-.203-.217-.305-.512-.305-.885 0-.14.027-.287.08-.44.053-.153.133-.305.24-.455.107-.15.237-.292.39-.425a2.99 2.99 0 0 1 .52-.36 2.965 2.965 0 0 1-1.105-1.09c-.263-.453-.395-.983-.395-1.59 0-.48.085-.915.255-1.305.17-.39.412-.725.725-1.005.313-.28.688-.497 1.125-.65a4.37 4.37 0 0 1 1.455-.23c.44 0 .845.053 1.215.16.37.107.702.257.995.45h2.55zm3.26-.44V27h-.95v-9.95h.95zm.41-3.43a.76.76 0 0 1-.075.335c-.05.103-.115.195-.195.275a.905.905 0 0 1-.28.19.84.84 0 0 1-.34.07.84.84 0 0 1-.34-.07.905.905 0 0 1-.47-.465.875.875 0 0 1 0-.68.89.89 0 0 1 .47-.475.84.84 0 0 1 .34-.07.84.84 0 0 1 .34.07.905.905 0 0 1 .475.475c.05.11.075.225.075.345zm3.89 5.17a5.64 5.64 0 0 1 1.595-1.38 3.972 3.972 0 0 1 2.015-.52c.547 0 1.028.087 1.445.26.417.173.762.423 1.035.75.273.327.48.72.62 1.18.14.46.21.98.21 1.56V27h-.96v-6.36c0-.933-.213-1.665-.64-2.195-.427-.53-1.077-.795-1.95-.795a3.53 3.53 0 0 0-1.815.495c-.563.33-1.065.788-1.505 1.375V27h-.96v-9.95h.53c.167 0 .263.083.29.25l.09 1.49zm13.34 3.81a3.27 3.27 0 0 0 1.14-.185c.333-.123.613-.295.84-.515.227-.22.4-.483.52-.79.12-.307.18-.647.18-1.02a2.75 2.75 0 0 0-.185-1.025 2.22 2.22 0 0 0-.53-.795c-.23-.22-.51-.39-.84-.51-.33-.12-.705-.18-1.125-.18-.42 0-.795.06-1.125.18-.33.12-.61.29-.84.51-.23.22-.405.485-.525.795-.12.31-.18.652-.18 1.025 0 .373.06.713.18 1.02.12.307.295.57.525.79.23.22.51.392.84.515.33.123.705.185 1.125.185zm3.72 5.07c0-.313-.082-.565-.245-.755a1.62 1.62 0 0 0-.655-.445 3.893 3.893 0 0 0-.945-.225c-.357-.043-.73-.075-1.12-.095l-1.175-.06a9.28 9.28 0 0 1-1.11-.12 4.56 4.56 0 0 0-.7.345 2.53 2.53 0 0 0-.55.445 1.984 1.984 0 0 0-.36.545c-.087.197-.13.408-.13.635 0 .293.075.565.225.815.15.25.37.467.66.65.29.183.645.328 1.065.435.42.107.903.16 1.45.16a5.62 5.62 0 0 0 1.415-.17 3.94 3.94 0 0 0 1.14-.48c.323-.207.577-.453.76-.74.183-.287.275-.6.275-.94zm1.04-10.18v.33c0 .147-.093.237-.28.27l-1.52.11c.187.253.33.537.43.85.1.313.15.653.15 1.02 0 .48-.085.915-.255 1.305-.17.39-.41.723-.72 1s-.683.492-1.12.645c-.437.153-.918.23-1.445.23a4.422 4.422 0 0 1-1.55-.26c-.28.16-.502.348-.665.565-.163.217-.245.432-.245.645 0 .287.102.507.305.66.203.153.47.265.8.335.33.07.707.115 1.13.135.423.02.855.042 1.295.065.44.023.872.065 1.295.125.423.06.8.165 1.13.315.33.15.597.36.8.63.203.27.305.628.305 1.075 0 .413-.103.81-.31 1.19a3.15 3.15 0 0 1-.895 1.01c-.39.293-.862.528-1.415.705a6.1 6.1 0 0 1-1.86.265c-.7 0-1.313-.072-1.84-.215-.527-.143-.968-.337-1.325-.58a2.54 2.54 0 0 1-.805-.845 2.05 2.05 0 0 1-.27-1.02c0-.527.173-.978.52-1.355.347-.377.82-.672 1.42-.885a1.932 1.932 0 0 1-.805-.495c-.203-.217-.305-.512-.305-.885 0-.14.027-.287.08-.44.053-.153.133-.305.24-.455.107-.15.237-.292.39-.425a2.99 2.99 0 0 1 .52-.36 2.965 2.965 0 0 1-1.105-1.09c-.263-.453-.395-.983-.395-1.59 0-.48.085-.915.255-1.305.17-.39.412-.725.725-1.005.313-.28.688-.497 1.125-.65a4.37 4.37 0 0 1 1.455-.23c.44 0 .845.053 1.215.16.37.107.702.257.995.45h2.55zM541.59 26.15l-.02.85h-8.48V12.85h8.48v.85h-7.45v5.72h6.2v.83h-6.2v5.9h7.47zm3.63-9.1V27h-.95v-9.95h.95zm.41-3.43a.76.76 0 0 1-.075.335c-.05.103-.115.195-.195.275a.905.905 0 0 1-.28.19.84.84 0 0 1-.34.07.84.84 0 0 1-.34-.07.905.905 0 0 1-.47-.465.875.875 0 0 1 0-.68.89.89 0 0 1 .47-.475.84.84 0 0 1 .34-.07.84.84 0 0 1 .34.07.905.905 0 0 1 .475.475c.05.11.075.225.075.345zm6.23 8.98a3.27 3.27 0 0 0 1.14-.185c.333-.123.613-.295.84-.515.227-.22.4-.483.52-.79.12-.307.18-.647.18-1.02a2.75 2.75 0 0 0-.185-1.025 2.22 2.22 0 0 0-.53-.795c-.23-.22-.51-.39-.84-.51-.33-.12-.705-.18-1.125-.18-.42 0-.795.06-1.125.18-.33.12-.61.29-.84.51-.23.22-.405.485-.525.795-.12.31-.18.652-.18 1.025 0 .373.06.713.18 1.02.12.307.295.57.525.79.23.22.51.392.84.515.33.123.705.185 1.125.185zm3.72 5.07c0-.313-.082-.565-.245-.755a1.62 1.62 0 0 0-.655-.445 3.893 3.893 0 0 0-.945-.225c-.357-.043-.73-.075-1.12-.095l-1.175-.06a9.28 9.28 0 0 1-1.11-.12 4.56 4.56 0 0 0-.7.345 2.53 2.53 0 0 0-.55.445 1.984 1.984 0 0 0-.36.545c-.087.197-.13.408-.13.635 0 .293.075.565.225.815.15.25.37.467.66.65.29.183.645.328 1.065.435.42.107.903.16 1.45.16a5.62 5.62 0 0 0 1.415-.17 3.94 3.94 0 0 0 1.14-.48c.323-.207.577-.453.76-.74.183-.287.275-.6.275-.94zm1.04-10.18v.33c0 .147-.093.237-.28.27l-1.52.11c.187.253.33.537.43.85.1.313.15.653.15 1.02 0 .48-.085.915-.255 1.305-.17.39-.41.723-.72 1s-.683.492-1.12.645c-.437.153-.918.23-1.445.23a4.422 4.422 0 0 1-1.55-.26c-.28.16-.502.348-.665.565-.163.217-.245.432-.245.645 0 .287.102.507.305.66.203.153.47.265.8.335.33.07.707.115 1.13.135.423.02.855.042 1.295.065.44.023.872.065 1.295.125.423.06.8.165 1.13.315.33.15.597.36.8.63.203.27.305.628.305 1.075 0 .413-.103.81-.31 1.19a3.15 3.15 0 0 1-.895 1.01c-.39.293-.862.528-1.415.705a6.1 6.1 0 0 1-1.86.265c-.7 0-1.313-.072-1.84-.215-.527-.143-.968-.337-1.325-.58a2.54 2.54 0 0 1-.805-.845 2.05 2.05 0 0 1-.27-1.02c0-.527.173-.978.52-1.355.347-.377.82-.672 1.42-.885a1.932 1.932 0 0 1-.805-.495c-.203-.217-.305-.512-.305-.885 0-.14.027-.287.08-.44.053-.153.133-.305.24-.455.107-.15.237-.292.39-.425a2.99 2.99 0 0 1 .52-.36 2.965 2.965 0 0 1-1.105-1.09c-.263-.453-.395-.983-.395-1.59 0-.48.085-.915.255-1.305.17-.39.412-.725.725-1.005.313-.28.688-.497 1.125-.65a4.37 4.37 0 0 1 1.455-.23c.44 0 .845.053 1.215.16.37.107.702.257.995.45h2.55zm9.05 3.53a4.28 4.28 0 0 0-.225-1.435 3.045 3.045 0 0 0-.635-1.075 2.77 2.77 0 0 0-.975-.675 3.21 3.21 0 0 0-1.245-.235c-.513 0-.973.08-1.38.24a3.02 3.02 0 0 0-1.055.69c-.297.3-.535.66-.715 1.08-.18.42-.3.89-.36 1.41h6.59zm-6.64.61v.19c0 .747.087 1.403.26 1.97.173.567.42 1.042.74 1.425s.707.672 1.16.865c.453.193.96.29 1.52.29.5 0 .933-.055 1.3-.165a4.845 4.845 0 0 0 1.52-.74c.147-.11.253-.165.32-.165a.23.23 0 0 1 .2.1l.26.32c-.16.2-.372.387-.635.56a4.532 4.532 0 0 1-.88.445 6.41 6.41 0 0 1-1.04.295c-.37.073-.742.11-1.115.11-.68 0-1.3-.118-1.86-.355a3.943 3.943 0 0 1-1.44-1.035c-.4-.453-.708-1.008-.925-1.665-.217-.657-.325-1.408-.325-2.255 0-.713.102-1.372.305-1.975a4.523 4.523 0 0 1 .88-1.56 4.01 4.01 0 0 1 1.41-1.025c.557-.247 1.188-.37 1.895-.37.56 0 1.08.097 1.56.29.48.193.897.475 1.25.845s.632.825.835 1.365c.203.54.305 1.16.305 1.86 0 .147-.02.247-.06.3-.04.053-.107.08-.2.08h-7.24zm16.88-2.44c-.38-.573-.802-.977-1.265-1.21-.463-.233-.992-.35-1.585-.35-.587 0-1.1.107-1.54.32-.44.213-.808.515-1.105.905-.297.39-.52.857-.67 1.4a6.734 6.734 0 0 0-.225 1.795c0 1.48.272 2.568.815 3.265.543.697 1.328 1.045 2.355 1.045.653 0 1.25-.17 1.79-.51.54-.34 1.017-.817 1.43-1.43v-5.23zm.95-6.74V27h-.52c-.173 0-.273-.087-.3-.26l-.1-1.57c-.44.6-.953 1.077-1.54 1.43a3.763 3.763 0 0 1-1.98.53c-1.227 0-2.18-.423-2.86-1.27-.68-.847-1.02-2.117-1.02-3.81 0-.727.095-1.405.285-2.035.19-.63.468-1.177.835-1.64a3.943 3.943 0 0 1 1.355-1.095c.537-.267 1.155-.4 1.855-.4.673 0 1.257.123 1.75.37.493.247.923.613 1.29 1.1v-5.9h.95zm7.22 4.44c.713 0 1.352.122 1.915.365a3.903 3.903 0 0 1 1.425 1.035c.387.447.682.985.885 1.615.203.63.305 1.335.305 2.115 0 .78-.102 1.483-.305 2.11a4.59 4.59 0 0 1-.885 1.61c-.387.447-.862.79-1.425 1.03-.563.24-1.202.36-1.915.36-.713 0-1.352-.12-1.915-.36a3.9 3.9 0 0 1-1.43-1.03 4.548 4.548 0 0 1-.89-1.61c-.203-.627-.305-1.33-.305-2.11 0-.78.102-1.485.305-2.115.203-.63.5-1.168.89-1.615a3.95 3.95 0 0 1 1.43-1.035c.563-.243 1.202-.365 1.915-.365zm0 9.49c.593 0 1.112-.102 1.555-.305a2.944 2.944 0 0 0 1.11-.875 3.86 3.86 0 0 0 .665-1.375c.147-.537.22-1.138.22-1.805 0-.66-.073-1.26-.22-1.8a3.908 3.908 0 0 0-.665-1.385 2.97 2.97 0 0 0-1.11-.885c-.443-.207-.962-.31-1.555-.31s-1.112.103-1.555.31a2.97 2.97 0 0 0-1.11.885c-.297.383-.52.845-.67 1.385a6.72 6.72 0 0 0-.225 1.8c0 .667.075 1.268.225 1.805.15.537.373.995.67 1.375.297.38.667.672 1.11.875.443.203.962.305 1.555.305zm7.22.62v-9.95h.53c.167 0 .263.083.29.25l.09 1.44c.387-.553.83-1 1.33-1.34.5-.34 1.063-.51 1.69-.51.727 0 1.308.21 1.745.63.437.42.732 1.003.885 1.75.12-.407.288-.76.505-1.06.217-.3.465-.548.745-.745.28-.197.585-.342.915-.435.33-.093.668-.14 1.015-.14.493 0 .937.082 1.33.245.393.163.727.405 1 .725.273.32.483.713.63 1.18.147.467.22 1 .22 1.6V27h-.95v-6.36c0-.973-.21-1.715-.63-2.225-.42-.51-1.02-.765-1.8-.765-.347 0-.678.063-.995.19a2.41 2.41 0 0 0-.84.565c-.243.25-.437.562-.58.935-.143.373-.215.807-.215 1.3V27h-.96v-6.36c0-.967-.192-1.707-.575-2.22-.383-.513-.945-.77-1.685-.77-.54 0-1.04.16-1.5.48-.46.32-.87.763-1.23 1.33V27h-.96z" fill="#1A171B"/></g><path d="M0 132a4 4 0 0 1 3.993-4h162.014a4 4 0 0 1 3.993 4v32a4 4 0 0 1-3.993 4H3.993A4 4 0 0 1 0 164v-32zm1-.002A3.006 3.006 0 0 1 4.005 129h161.99a3.008 3.008 0 0 1 3.005 2.998v32.004a3.006 3.006 0 0 1-3.005 2.998H4.005A3.008 3.008 0 0 1 1 164.002v-32.004zM182 132c0-2.21 1.79-4 3.992-4h123.016a4 4 0 0 1 3.992 4v32c0 2.21-1.79 4-3.992 4H185.992a4 4 0 0 1-3.992-4v-32zm1-.002a2.997 2.997 0 0 1 3-2.998h123c1.657 0 3 1.352 3 2.998v32.004a2.997 2.997 0 0 1-3 2.998H186c-1.657 0-3-1.352-3-2.998v-32.004zM470 132c0-2.21 1.79-4 4-4h103c2.21 0 4 1.796 4 4v32c0 2.21-1.79 4-4 4H474c-2.21 0-4-1.796-4-4v-32zm1-.002a2.996 2.996 0 0 1 3-2.998h103c1.657 0 3 1.352 3 2.998v32.004a2.996 2.996 0 0 1-3 2.998H474c-1.657 0-3-1.352-3-2.998v-32.004zM325 132a4 4 0 0 1 4-4h125c2.21 0 4 1.796 4 4v32a4 4 0 0 1-4 4H329c-2.21 0-4-1.796-4-4v-32zm1-.002a2.996 2.996 0 0 1 2.998-2.998h125.004a3.004 3.004 0 0 1 2.998 2.998v32.004a2.996 2.996 0 0 1-2.998 2.998H328.998a3.004 3.004 0 0 1-2.998-2.998v-32.004zM593 132a4 4 0 0 1 3.993-4h119.014a4 4 0 0 1 3.993 4v32a4 4 0 0 1-3.993 4H596.993a4 4 0 0 1-3.993-4v-32zm1-.002a2.996 2.996 0 0 1 2.997-2.998h119.006a3.004 3.004 0 0 1 2.997 2.998v32.004a2.996 2.996 0 0 1-2.997 2.998H596.997a3.004 3.004 0 0 1-2.997-2.998v-32.004z" fill="#B8ADA2"/><path d="M22.12 147.38h.84c.127 0 .237-.005.33-.015.093-.01.178-.028.255-.055a.716.716 0 0 0 .21-.115c.063-.05.132-.112.205-.185l5.71-5.87a.84.84 0 0 1 .295-.23.9.9 0 0 1 .345-.06h.82l-6.18 6.35a2.908 2.908 0 0 1-.335.31 1.335 1.335 0 0 1-.325.18c.14.04.267.102.38.185.113.083.227.192.34.325l6.51 6.8h-.83c-.173 0-.298-.022-.375-.065a.79.79 0 0 1-.225-.205l-5.98-6.12a3.3 3.3 0 0 0-.205-.19.983.983 0 0 0-.21-.135.99.99 0 0 0-.27-.08 2.56 2.56 0 0 0-.395-.025h-.91V155h-1.03v-14.15h1.03v6.53zm18.44-2.33V155h-.53c-.167 0-.263-.087-.29-.26l-.09-1.48a5.64 5.64 0 0 1-1.595 1.38 3.972 3.972 0 0 1-2.015.52c-.553 0-1.037-.087-1.45-.26a2.66 2.66 0 0 1-1.03-.75 3.32 3.32 0 0 1-.62-1.18c-.14-.46-.21-.98-.21-1.56v-6.36h.96v6.36c0 .933.213 1.665.64 2.195.427.53 1.077.795 1.95.795a3.53 3.53 0 0 0 1.815-.495c.563-.33 1.065-.788 1.505-1.375v-7.48h.96zm4.32-4.6V155h-.96v-14.55h.96zm6.09 14.71c-.673 0-1.198-.187-1.575-.56-.377-.373-.565-.95-.565-1.73v-6.8H47.4a.267.267 0 0 1-.18-.06.212.212 0 0 1-.07-.17v-.37l1.7-.12.24-3.56a.363.363 0 0 1 .08-.16.212.212 0 0 1 .17-.07h.45v3.8h3.14v.71h-3.14v6.75c0 .273.035.508.105.705.07.197.167.358.29.485.123.127.268.22.435.28.167.06.347.09.54.09.24 0 .447-.035.62-.105a2.57 2.57 0 0 0 .45-.23c.127-.083.23-.16.31-.23.08-.07.143-.105.19-.105.053 0 .107.033.16.1l.26.42c-.253.28-.575.505-.965.675a3.01 3.01 0 0 1-1.215.255zm11.85-10.11V155h-.53c-.167 0-.263-.087-.29-.26l-.09-1.48a5.64 5.64 0 0 1-1.595 1.38 3.972 3.972 0 0 1-2.015.52c-.553 0-1.037-.087-1.45-.26a2.66 2.66 0 0 1-1.03-.75 3.32 3.32 0 0 1-.62-1.18c-.14-.46-.21-.98-.21-1.56v-6.36h.96v6.36c0 .933.213 1.665.64 2.195.427.53 1.077.795 1.95.795a3.53 3.53 0 0 0 1.815-.495c.563-.33 1.065-.788 1.505-1.375v-7.48h.96zm4.18 2.4c.153-.407.328-.768.525-1.085a3.44 3.44 0 0 1 .68-.805c.257-.22.543-.388.86-.505a3.032 3.032 0 0 1 1.055-.175c.207 0 .41.018.61.055.2.037.377.102.53.195l-.08.66c-.033.107-.097.16-.19.16-.08 0-.202-.023-.365-.07a2.418 2.418 0 0 0-.645-.07c-.387 0-.728.058-1.025.175a2.364 2.364 0 0 0-.8.525 3.362 3.362 0 0 0-.62.865 8.16 8.16 0 0 0-.485 1.185V155h-.96v-9.95h.51c.113 0 .193.023.24.07.047.047.077.127.09.24l.07 2.09zm15.1-2.56c.713 0 1.352.122 1.915.365a3.903 3.903 0 0 1 1.425 1.035c.387.447.682.985.885 1.615.203.63.305 1.335.305 2.115 0 .78-.102 1.483-.305 2.11a4.59 4.59 0 0 1-.885 1.61c-.387.447-.862.79-1.425 1.03-.563.24-1.202.36-1.915.36-.713 0-1.352-.12-1.915-.36a3.9 3.9 0 0 1-1.43-1.03 4.548 4.548 0 0 1-.89-1.61c-.203-.627-.305-1.33-.305-2.11 0-.78.102-1.485.305-2.115.203-.63.5-1.168.89-1.615a3.95 3.95 0 0 1 1.43-1.035c.563-.243 1.202-.365 1.915-.365zm0 9.49c.593 0 1.112-.102 1.555-.305a2.944 2.944 0 0 0 1.11-.875 3.86 3.86 0 0 0 .665-1.375c.147-.537.22-1.138.22-1.805 0-.66-.073-1.26-.22-1.8a3.908 3.908 0 0 0-.665-1.385 2.97 2.97 0 0 0-1.11-.885c-.443-.207-.962-.31-1.555-.31s-1.112.103-1.555.31a2.97 2.97 0 0 0-1.11.885c-.297.383-.52.845-.67 1.385a6.72 6.72 0 0 0-.225 1.8c0 .667.075 1.268.225 1.805.15.537.373.995.67 1.375.297.38.667.672 1.11.875.443.203.962.305 1.555.305zm10.44-3.78a3.27 3.27 0 0 0 1.14-.185c.333-.123.613-.295.84-.515.227-.22.4-.483.52-.79.12-.307.18-.647.18-1.02a2.75 2.75 0 0 0-.185-1.025 2.22 2.22 0 0 0-.53-.795c-.23-.22-.51-.39-.84-.51-.33-.12-.705-.18-1.125-.18-.42 0-.795.06-1.125.18-.33.12-.61.29-.84.51-.23.22-.405.485-.525.795-.12.31-.18.652-.18 1.025 0 .373.06.713.18 1.02.12.307.295.57.525.79.23.22.51.392.84.515.33.123.705.185 1.125.185zm3.72 5.07c0-.313-.082-.565-.245-.755a1.62 1.62 0 0 0-.655-.445 3.893 3.893 0 0 0-.945-.225c-.357-.043-.73-.075-1.12-.095l-1.175-.06a9.28 9.28 0 0 1-1.11-.12 4.56 4.56 0 0 0-.7.345 2.53 2.53 0 0 0-.55.445 1.984 1.984 0 0 0-.36.545c-.087.197-.13.408-.13.635 0 .293.075.565.225.815.15.25.37.467.66.65.29.183.645.328 1.065.435.42.107.903.16 1.45.16a5.62 5.62 0 0 0 1.415-.17 3.94 3.94 0 0 0 1.14-.48c.323-.207.577-.453.76-.74.183-.287.275-.6.275-.94zm1.04-10.18v.33c0 .147-.093.237-.28.27l-1.52.11c.187.253.33.537.43.85.1.313.15.653.15 1.02 0 .48-.085.915-.255 1.305-.17.39-.41.723-.72 1s-.683.492-1.12.645c-.437.153-.918.23-1.445.23a4.422 4.422 0 0 1-1.55-.26c-.28.16-.502.348-.665.565-.163.217-.245.432-.245.645 0 .287.102.507.305.66.203.153.47.265.8.335.33.07.707.115 1.13.135.423.02.855.042 1.295.065.44.023.872.065 1.295.125.423.06.8.165 1.13.315.33.15.597.36.8.63.203.27.305.628.305 1.075 0 .413-.103.81-.31 1.19a3.15 3.15 0 0 1-.895 1.01c-.39.293-.862.528-1.415.705a6.1 6.1 0 0 1-1.86.265c-.7 0-1.313-.072-1.84-.215-.527-.143-.968-.337-1.325-.58a2.54 2.54 0 0 1-.805-.845 2.05 2.05 0 0 1-.27-1.02c0-.527.173-.978.52-1.355.347-.377.82-.672 1.42-.885a1.932 1.932 0 0 1-.805-.495c-.203-.217-.305-.512-.305-.885 0-.14.027-.287.08-.44.053-.153.133-.305.24-.455.107-.15.237-.292.39-.425a2.99 2.99 0 0 1 .52-.36 2.965 2.965 0 0 1-1.105-1.09c-.263-.453-.395-.983-.395-1.59 0-.48.085-.915.255-1.305.17-.39.412-.725.725-1.005.313-.28.688-.497 1.125-.65a4.37 4.37 0 0 1 1.455-.23c.44 0 .845.053 1.215.16.37.107.702.257.995.45h2.55zm8.69-.44V155h-.95v-9.95h.95zm.41-3.43a.76.76 0 0 1-.075.335c-.05.103-.115.195-.195.275a.905.905 0 0 1-.28.19.84.84 0 0 1-.34.07.84.84 0 0 1-.34-.07.905.905 0 0 1-.47-.465.875.875 0 0 1 0-.68.89.89 0 0 1 .47-.475.84.84 0 0 1 .34-.07.84.84 0 0 1 .34.07.905.905 0 0 1 .475.475c.05.11.075.225.075.345zm9.77 5.57c-.38-.573-.802-.977-1.265-1.21-.463-.233-.992-.35-1.585-.35-.587 0-1.1.107-1.54.32-.44.213-.808.515-1.105.905-.297.39-.52.857-.67 1.4a6.734 6.734 0 0 0-.225 1.795c0 1.48.272 2.568.815 3.265.543.697 1.328 1.045 2.355 1.045.653 0 1.25-.17 1.79-.51.54-.34 1.017-.817 1.43-1.43v-5.23zm.95-6.74V155h-.52c-.173 0-.273-.087-.3-.26l-.1-1.57c-.44.6-.953 1.077-1.54 1.43a3.763 3.763 0 0 1-1.98.53c-1.227 0-2.18-.423-2.86-1.27-.68-.847-1.02-2.117-1.02-3.81 0-.727.095-1.405.285-2.035.19-.63.468-1.177.835-1.64a3.943 3.943 0 0 1 1.355-1.095c.537-.267 1.155-.4 1.855-.4.673 0 1.257.123 1.75.37.493.247.923.613 1.29 1.1v-5.9h.95zm4.19 7c.153-.407.328-.768.525-1.085a3.44 3.44 0 0 1 .68-.805c.257-.22.543-.388.86-.505a3.032 3.032 0 0 1 1.055-.175c.207 0 .41.018.61.055.2.037.377.102.53.195l-.08.66c-.033.107-.097.16-.19.16-.08 0-.202-.023-.365-.07a2.418 2.418 0 0 0-.645-.07c-.387 0-.728.058-1.025.175a2.364 2.364 0 0 0-.8.525 3.362 3.362 0 0 0-.62.865 8.16 8.16 0 0 0-.485 1.185V155h-.96v-9.95h.51c.113 0 .193.023.24.07.047.047.077.127.09.24l.07 2.09zm12.58 1.57a4.28 4.28 0 0 0-.225-1.435 3.045 3.045 0 0 0-.635-1.075 2.77 2.77 0 0 0-.975-.675 3.21 3.21 0 0 0-1.245-.235c-.513 0-.973.08-1.38.24a3.02 3.02 0 0 0-1.055.69c-.297.3-.535.66-.715 1.08-.18.42-.3.89-.36 1.41h6.59zm-6.64.61v.19c0 .747.087 1.403.26 1.97.173.567.42 1.042.74 1.425s.707.672 1.16.865c.453.193.96.29 1.52.29.5 0 .933-.055 1.3-.165a4.845 4.845 0 0 0 1.52-.74c.147-.11.253-.165.32-.165a.23.23 0 0 1 .2.1l.26.32c-.16.2-.372.387-.635.56a4.532 4.532 0 0 1-.88.445 6.41 6.41 0 0 1-1.04.295c-.37.073-.742.11-1.115.11-.68 0-1.3-.118-1.86-.355a3.943 3.943 0 0 1-1.44-1.035c-.4-.453-.708-1.008-.925-1.665-.217-.657-.325-1.408-.325-2.255 0-.713.102-1.372.305-1.975a4.523 4.523 0 0 1 .88-1.56 4.01 4.01 0 0 1 1.41-1.025c.557-.247 1.188-.37 1.895-.37.56 0 1.08.097 1.56.29.48.193.897.475 1.25.845s.632.825.835 1.365c.203.54.305 1.16.305 1.86 0 .147-.02.247-.06.3-.04.053-.107.08-.2.08h-7.24zm12.78 5.53c-.673 0-1.198-.187-1.575-.56-.377-.373-.565-.95-.565-1.73v-6.8h-1.43a.267.267 0 0 1-.18-.06.212.212 0 0 1-.07-.17v-.37l1.7-.12.24-3.56a.363.363 0 0 1 .08-.16.212.212 0 0 1 .17-.07h.45v3.8h5.39l.24-3.57a.363.363 0 0 1 .08-.16.212.212 0 0 1 .17-.07h.45v3.8h3.14v.71h-3.14v6.75c0 .273.035.508.105.705.07.197.167.358.29.485.123.127.268.22.435.28.167.06.347.09.54.09.24 0 .447-.035.62-.105a2.57 2.57 0 0 0 .45-.23c.127-.083.23-.16.31-.23.08-.07.143-.105.19-.105.053 0 .107.033.16.1l.26.42c-.253.28-.575.505-.965.675a3.01 3.01 0 0 1-1.215.255c-.673 0-1.198-.187-1.575-.56-.377-.373-.565-.95-.565-1.73v-6.8h-5.37v6.75c0 .273.035.508.105.705.07.197.167.358.29.485.123.127.268.22.435.28.167.06.347.09.54.09.24 0 .447-.035.62-.105a2.57 2.57 0 0 0 .45-.23c.127-.083.23-.16.31-.23.08-.07.143-.105.19-.105.053 0 .107.033.16.1l.26.42c-.253.28-.575.505-.965.675a3.01 3.01 0 0 1-1.215.255zM216.66 147.92c0 1.093-.163 2.085-.49 2.975-.327.89-.787 1.65-1.38 2.28a6.092 6.092 0 0 1-2.135 1.46c-.83.343-1.745.515-2.745.515s-1.913-.172-2.74-.515a6.103 6.103 0 0 1-2.13-1.46c-.593-.63-1.053-1.39-1.38-2.28-.327-.89-.49-1.882-.49-2.975 0-1.087.163-2.075.49-2.965.327-.89.787-1.65 1.38-2.28a6.16 6.16 0 0 1 2.13-1.465c.827-.347 1.74-.52 2.74-.52 1 0 1.915.172 2.745.515a6.06 6.06 0 0 1 2.135 1.465c.593.633 1.053 1.395 1.38 2.285.327.89.49 1.878.49 2.965zm-1.06 0c0-.987-.137-1.873-.41-2.66-.273-.787-.66-1.453-1.16-2a5 5 0 0 0-1.8-1.255c-.7-.29-1.473-.435-2.32-.435-.84 0-1.61.145-2.31.435-.7.29-1.302.708-1.805 1.255-.503.547-.893 1.213-1.17 2-.277.787-.415 1.673-.415 2.66 0 .993.138 1.882.415 2.665.277.783.667 1.448 1.17 1.995a4.994 4.994 0 0 0 1.805 1.25c.7.287 1.47.43 2.31.43.847 0 1.62-.143 2.32-.43.7-.287 1.3-.703 1.8-1.25s.887-1.212 1.16-1.995c.273-.783.41-1.672.41-2.665zm4.6 4.91c.193.287.395.528.605.725.21.197.432.357.665.48.233.123.482.212.745.265a4.2 4.2 0 0 0 .835.08c.587 0 1.1-.107 1.54-.32.44-.213.808-.515 1.105-.905.297-.39.52-.857.67-1.4.15-.543.225-1.142.225-1.795 0-1.48-.273-2.568-.82-3.265-.547-.697-1.33-1.045-2.35-1.045-.66 0-1.257.17-1.79.51-.533.34-1.01.813-1.43 1.42v5.25zm-.04-5.99c.44-.6.955-1.077 1.545-1.43a3.79 3.79 0 0 1 1.985-.53c1.22 0 2.172.423 2.855 1.27.683.847 1.025 2.117 1.025 3.81 0 .727-.095 1.405-.285 2.035-.19.63-.47 1.177-.84 1.64-.37.463-.823.828-1.36 1.095-.537.267-1.155.4-1.855.4-.673 0-1.257-.123-1.75-.37a3.615 3.615 0 0 1-1.28-1.09v4.85h-.96v-13.47h.53c.167 0 .263.083.29.25l.1 1.54zm11.07 5.99c.193.287.395.528.605.725.21.197.432.357.665.48.233.123.482.212.745.265a4.2 4.2 0 0 0 .835.08c.587 0 1.1-.107 1.54-.32.44-.213.808-.515 1.105-.905.297-.39.52-.857.67-1.4.15-.543.225-1.142.225-1.795 0-1.48-.273-2.568-.82-3.265-.547-.697-1.33-1.045-2.35-1.045-.66 0-1.257.17-1.79.51-.533.34-1.01.813-1.43 1.42v5.25zm-.04-5.99c.44-.6.955-1.077 1.545-1.43a3.79 3.79 0 0 1 1.985-.53c1.22 0 2.172.423 2.855 1.27.683.847 1.025 2.117 1.025 3.81 0 .727-.095 1.405-.285 2.035-.19.63-.47 1.177-.84 1.64-.37.463-.823.828-1.36 1.095-.537.267-1.155.4-1.855.4-.673 0-1.257-.123-1.75-.37a3.615 3.615 0 0 1-1.28-1.09v4.85h-.96v-13.47h.53c.167 0 .263.083.29.25l.1 1.54zm11.16-6.39V155h-.96v-14.55h.96zm15.9 8.77c0-.567-.07-1.075-.21-1.525-.14-.45-.333-.83-.58-1.14a2.5 2.5 0 0 0-.88-.71 2.552 2.552 0 0 0-1.12-.245c-.48 0-.912.087-1.295.26a2.85 2.85 0 0 0-.985.73 3.587 3.587 0 0 0-.655 1.14 5.492 5.492 0 0 0-.305 1.49h6.03zm-6.94.62c-.947.033-1.762.118-2.445.255-.683.137-1.247.315-1.69.535-.443.22-.77.478-.98.775a1.65 1.65 0 0 0-.315.975c0 .373.055.692.165.955.11.263.265.478.465.645.2.167.437.29.71.37.273.08.573.12.9.12.44 0 .853-.073 1.24-.22a2.915 2.915 0 0 0 1.015-.645c.29-.283.518-.632.685-1.045.167-.413.25-.883.25-1.41v-1.31zm-5.85-3.38c.513-.52 1.048-.913 1.605-1.18.557-.267 1.192-.4 1.905-.4.84 0 1.5.215 1.98.645.48.43.797 1.018.95 1.765a4.36 4.36 0 0 1 .575-.995c.23-.297.495-.548.795-.755.3-.207.635-.367 1.005-.48.37-.113.772-.17 1.205-.17.5 0 .97.1 1.41.3.44.2.823.492 1.15.875.327.383.583.858.77 1.425.187.567.28 1.22.28 1.96 0 .147-.018.247-.055.3-.037.053-.102.08-.195.08h-6.64c0 .747.08 1.403.24 1.97.16.567.387 1.04.68 1.42.293.38.647.667 1.06.86.413.193.873.29 1.38.29.473 0 .877-.055 1.21-.165.333-.11.613-.23.84-.36.227-.13.403-.25.53-.36.127-.11.223-.165.29-.165.093 0 .167.033.22.1l.24.3a2.71 2.71 0 0 1-.6.56c-.247.173-.52.322-.82.445-.3.123-.618.222-.955.295-.337.073-.678.11-1.025.11-.867 0-1.617-.23-2.25-.69-.633-.46-1.107-1.147-1.42-2.06-.133.513-.342.947-.625 1.3-.283.353-.605.64-.965.86a3.95 3.95 0 0 1-1.145.475 4.957 4.957 0 0 1-1.155.145c-.42 0-.81-.052-1.17-.155a2.572 2.572 0 0 1-.94-.485 2.27 2.27 0 0 1-.63-.85c-.153-.347-.23-.763-.23-1.25 0-.427.12-.828.36-1.205.24-.377.617-.708 1.13-.995.513-.287 1.17-.52 1.97-.7.8-.18 1.763-.283 2.89-.31v-.69c0-.92-.198-1.632-.595-2.135-.397-.503-.985-.755-1.765-.755-.48 0-.888.068-1.225.205a4.522 4.522 0 0 0-.855.445 4.96 4.96 0 0 0-.57.445c-.147.137-.27.205-.37.205a.302.302 0 0 1-.18-.05.45.45 0 0 1-.12-.13l-.17-.29zm17.16.99c.153-.407.328-.768.525-1.085a3.44 3.44 0 0 1 .68-.805c.257-.22.543-.388.86-.505a3.032 3.032 0 0 1 1.055-.175c.207 0 .41.018.61.055.2.037.377.102.53.195l-.08.66c-.033.107-.097.16-.19.16-.08 0-.202-.023-.365-.07a2.418 2.418 0 0 0-.645-.07c-.387 0-.728.058-1.025.175a2.364 2.364 0 0 0-.8.525 3.362 3.362 0 0 0-.62.865 8.16 8.16 0 0 0-.485 1.185V155h-.96v-9.95h.51c.113 0 .193.023.24.07.047.047.077.127.09.24l.07 2.09zm7.22-2.4V155h-.95v-9.95h.95zm.41-3.43a.76.76 0 0 1-.075.335c-.05.103-.115.195-.195.275a.905.905 0 0 1-.28.19.84.84 0 0 1-.34.07.84.84 0 0 1-.34-.07.905.905 0 0 1-.47-.465.875.875 0 0 1 0-.68.89.89 0 0 1 .47-.475.84.84 0 0 1 .34-.07.84.84 0 0 1 .34.07.905.905 0 0 1 .475.475c.05.11.075.225.075.345zm3.89 5.17a5.64 5.64 0 0 1 1.595-1.38 3.972 3.972 0 0 1 2.015-.52c.547 0 1.028.087 1.445.26.417.173.762.423 1.035.75.273.327.48.72.62 1.18.14.46.21.98.21 1.56V155h-.96v-6.36c0-.933-.213-1.665-.64-2.195-.427-.53-1.077-.795-1.95-.795a3.53 3.53 0 0 0-1.815.495c-.563.33-1.065.788-1.505 1.375V155h-.96v-9.95h.53c.167 0 .263.083.29.25l.09 1.49zm13.34 3.81a3.27 3.27 0 0 0 1.14-.185c.333-.123.613-.295.84-.515.227-.22.4-.483.52-.79.12-.307.18-.647.18-1.02a2.75 2.75 0 0 0-.185-1.025 2.22 2.22 0 0 0-.53-.795c-.23-.22-.51-.39-.84-.51-.33-.12-.705-.18-1.125-.18-.42 0-.795.06-1.125.18-.33.12-.61.29-.84.51-.23.22-.405.485-.525.795-.12.31-.18.652-.18 1.025 0 .373.06.713.18 1.02.12.307.295.57.525.79.23.22.51.392.84.515.33.123.705.185 1.125.185zm3.72 5.07c0-.313-.082-.565-.245-.755a1.62 1.62 0 0 0-.655-.445 3.893 3.893 0 0 0-.945-.225c-.357-.043-.73-.075-1.12-.095l-1.175-.06a9.28 9.28 0 0 1-1.11-.12 4.56 4.56 0 0 0-.7.345 2.53 2.53 0 0 0-.55.445 1.984 1.984 0 0 0-.36.545c-.087.197-.13.408-.13.635 0 .293.075.565.225.815.15.25.37.467.66.65.29.183.645.328 1.065.435.42.107.903.16 1.45.16a5.62 5.62 0 0 0 1.415-.17 3.94 3.94 0 0 0 1.14-.48c.323-.207.577-.453.76-.74.183-.287.275-.6.275-.94zm1.04-10.18v.33c0 .147-.093.237-.28.27l-1.52.11c.187.253.33.537.43.85.1.313.15.653.15 1.02 0 .48-.085.915-.255 1.305-.17.39-.41.723-.72 1s-.683.492-1.12.645c-.437.153-.918.23-1.445.23a4.422 4.422 0 0 1-1.55-.26c-.28.16-.502.348-.665.565-.163.217-.245.432-.245.645 0 .287.102.507.305.66.203.153.47.265.8.335.33.07.707.115 1.13.135.423.02.855.042 1.295.065.44.023.872.065 1.295.125.423.06.8.165 1.13.315.33.15.597.36.8.63.203.27.305.628.305 1.075 0 .413-.103.81-.31 1.19a3.15 3.15 0 0 1-.895 1.01c-.39.293-.862.528-1.415.705a6.1 6.1 0 0 1-1.86.265c-.7 0-1.313-.072-1.84-.215-.527-.143-.968-.337-1.325-.58a2.54 2.54 0 0 1-.805-.845 2.05 2.05 0 0 1-.27-1.02c0-.527.173-.978.52-1.355.347-.377.82-.672 1.42-.885a1.932 1.932 0 0 1-.805-.495c-.203-.217-.305-.512-.305-.885 0-.14.027-.287.08-.44.053-.153.133-.305.24-.455.107-.15.237-.292.39-.425a2.99 2.99 0 0 1 .52-.36 2.965 2.965 0 0 1-1.105-1.09c-.263-.453-.395-.983-.395-1.59 0-.48.085-.915.255-1.305.17-.39.412-.725.725-1.005.313-.28.688-.497 1.125-.65a4.37 4.37 0 0 1 1.455-.23c.44 0 .845.053 1.215.16.37.107.702.257.995.45h2.55zM353.96 142.57c-.06.113-.147.17-.26.17-.087 0-.198-.062-.335-.185a4.37 4.37 0 0 0-.555-.41 4.388 4.388 0 0 0-.875-.415c-.35-.127-.782-.19-1.295-.19-.513 0-.965.073-1.355.22-.39.147-.717.347-.98.6a2.554 2.554 0 0 0-.6.88 2.74 2.74 0 0 0-.205 1.05c0 .48.102.877.305 1.19.203.313.472.58.805.8.333.22.712.405 1.135.555.423.15.858.298 1.305.445.447.147.882.308 1.305.485.423.177.802.398 1.135.665.333.267.602.595.805.985.203.39.305.875.305 1.455 0 .593-.102 1.152-.305 1.675a3.91 3.91 0 0 1-.885 1.365c-.387.387-.86.692-1.42.915-.56.223-1.2.335-1.92.335-.933 0-1.737-.165-2.41-.495a5.68 5.68 0 0 1-1.77-1.355l.28-.44c.08-.1.173-.15.28-.15.06 0 .137.04.23.12.093.08.207.178.34.295.133.117.293.243.48.38s.403.263.65.38a4.508 4.508 0 0 0 1.94.415c.56 0 1.06-.085 1.5-.255.44-.17.812-.402 1.115-.695.303-.293.535-.642.695-1.045.16-.403.24-.835.24-1.295 0-.5-.102-.912-.305-1.235a2.628 2.628 0 0 0-.805-.81 5.192 5.192 0 0 0-1.135-.545c-.423-.147-.858-.29-1.305-.43-.447-.14-.882-.297-1.305-.47a4.498 4.498 0 0 1-1.135-.665 3.044 3.044 0 0 1-.805-1.01c-.203-.403-.305-.908-.305-1.515 0-.473.09-.93.27-1.37.18-.44.443-.828.79-1.165a3.88 3.88 0 0 1 1.285-.81c.51-.203 1.092-.305 1.745-.305.733 0 1.392.117 1.975.35.583.233 1.115.59 1.595 1.07l-.24.46zm8.8 7.62c-.947.033-1.762.108-2.445.225-.683.117-1.247.275-1.69.475-.443.2-.772.438-.985.715-.213.277-.32.592-.32.945 0 .333.055.622.165.865.11.243.257.443.44.6.183.157.395.272.635.345.24.073.49.11.75.11.387 0 .742-.042 1.065-.125.323-.083.623-.2.9-.35.277-.15.535-.328.775-.535.24-.207.477-.43.71-.67v-2.6zm-5.85-3.73c.52-.52 1.067-.913 1.64-1.18.573-.267 1.223-.4 1.95-.4.533 0 1 .085 1.4.255.4.17.732.413.995.73s.462.7.595 1.15c.133.45.2.952.2 1.505V155h-.38c-.2 0-.323-.093-.37-.28l-.14-1.28a10.44 10.44 0 0 1-.815.72 4.89 4.89 0 0 1-.845.54c-.293.147-.61.26-.95.34-.34.08-.713.12-1.12.12a3.3 3.3 0 0 1-.99-.15c-.32-.1-.605-.253-.855-.46a2.23 2.23 0 0 1-.6-.795c-.15-.323-.225-.712-.225-1.165 0-.42.12-.81.36-1.17.24-.36.617-.673 1.13-.94.513-.267 1.172-.48 1.975-.64.803-.16 1.768-.253 2.895-.28v-1.04c0-.92-.198-1.628-.595-2.125-.397-.497-.985-.745-1.765-.745-.48 0-.888.067-1.225.2-.337.133-.622.28-.855.44a5.39 5.39 0 0 0-.57.44c-.147.133-.27.2-.37.2a.302.302 0 0 1-.18-.05.45.45 0 0 1-.12-.13l-.17-.29zm9.96 8.54v-9.95h.53c.167 0 .263.083.29.25l.09 1.44c.387-.553.83-1 1.33-1.34.5-.34 1.063-.51 1.69-.51.727 0 1.308.21 1.745.63.437.42.732 1.003.885 1.75.12-.407.288-.76.505-1.06.217-.3.465-.548.745-.745.28-.197.585-.342.915-.435.33-.093.668-.14 1.015-.14.493 0 .937.082 1.33.245.393.163.727.405 1 .725.273.32.483.713.63 1.18.147.467.22 1 .22 1.6V155h-.95v-6.36c0-.973-.21-1.715-.63-2.225-.42-.51-1.02-.765-1.8-.765-.347 0-.678.063-.995.19a2.41 2.41 0 0 0-.84.565c-.243.25-.437.562-.58.935-.143.373-.215.807-.215 1.3V155h-.96v-6.36c0-.967-.192-1.707-.575-2.22-.383-.513-.945-.77-1.685-.77-.54 0-1.04.16-1.5.48-.46.32-.87.763-1.23 1.33V155h-.96zm16.56 0v-8.91l-1.4-.09c-.187-.02-.28-.103-.28-.25v-.39h1.68v-1.26c0-.567.073-1.065.22-1.495.147-.43.353-.788.62-1.075.267-.287.587-.502.96-.645a3.434 3.434 0 0 1 1.24-.215c.207 0 .415.018.625.055.21.037.398.088.565.155l-.03.46c-.013.06-.042.098-.085.115a.48.48 0 0 1-.185.02 3.637 3.637 0 0 1-.31-.03 3.412 3.412 0 0 0-.44-.025c-.327 0-.628.048-.905.145a1.763 1.763 0 0 0-.715.465c-.2.213-.355.492-.465.835-.11.343-.165.765-.165 1.265v1.23h3.23v.71h-3.2V155h-.96zm12.8-5.98a4.28 4.28 0 0 0-.225-1.435 3.045 3.045 0 0 0-.635-1.075 2.77 2.77 0 0 0-.975-.675 3.21 3.21 0 0 0-1.245-.235c-.513 0-.973.08-1.38.24a3.02 3.02 0 0 0-1.055.69c-.297.3-.535.66-.715 1.08-.18.42-.3.89-.36 1.41h6.59zm-6.64.61v.19c0 .747.087 1.403.26 1.97.173.567.42 1.042.74 1.425s.707.672 1.16.865c.453.193.96.29 1.52.29.5 0 .933-.055 1.3-.165a4.845 4.845 0 0 0 1.52-.74c.147-.11.253-.165.32-.165a.23.23 0 0 1 .2.1l.26.32c-.16.2-.372.387-.635.56a4.532 4.532 0 0 1-.88.445 6.41 6.41 0 0 1-1.04.295c-.37.073-.742.11-1.115.11-.68 0-1.3-.118-1.86-.355a3.943 3.943 0 0 1-1.44-1.035c-.4-.453-.708-1.008-.925-1.665-.217-.657-.325-1.408-.325-2.255 0-.713.102-1.372.305-1.975a4.523 4.523 0 0 1 .88-1.56 4.01 4.01 0 0 1 1.41-1.025c.557-.247 1.188-.37 1.895-.37.56 0 1.08.097 1.56.29.48.193.897.475 1.25.845s.632.825.835 1.365c.203.54.305 1.16.305 1.86 0 .147-.02.247-.06.3-.04.053-.107.08-.2.08h-7.24zm11-2.18c.153-.407.328-.768.525-1.085a3.44 3.44 0 0 1 .68-.805c.257-.22.543-.388.86-.505a3.032 3.032 0 0 1 1.055-.175c.207 0 .41.018.61.055.2.037.377.102.53.195l-.08.66c-.033.107-.097.16-.19.16-.08 0-.202-.023-.365-.07a2.418 2.418 0 0 0-.645-.07c-.387 0-.728.058-1.025.175a2.364 2.364 0 0 0-.8.525 3.362 3.362 0 0 0-.62.865 8.16 8.16 0 0 0-.485 1.185V155h-.96v-9.95h.51c.113 0 .193.023.24.07.047.047.077.127.09.24l.07 2.09zm12.41-.26c-.38-.573-.802-.977-1.265-1.21-.463-.233-.992-.35-1.585-.35-.587 0-1.1.107-1.54.32-.44.213-.808.515-1.105.905-.297.39-.52.857-.67 1.4a6.734 6.734 0 0 0-.225 1.795c0 1.48.272 2.568.815 3.265.543.697 1.328 1.045 2.355 1.045.653 0 1.25-.17 1.79-.51.54-.34 1.017-.817 1.43-1.43v-5.23zm.95-6.74V155h-.52c-.173 0-.273-.087-.3-.26l-.1-1.57c-.44.6-.953 1.077-1.54 1.43a3.763 3.763 0 0 1-1.98.53c-1.227 0-2.18-.423-2.86-1.27-.68-.847-1.02-2.117-1.02-3.81 0-.727.095-1.405.285-2.035.19-.63.468-1.177.835-1.64a3.943 3.943 0 0 1 1.355-1.095c.537-.267 1.155-.4 1.855-.4.673 0 1.257.123 1.75.37.493.247.923.613 1.29 1.1v-5.9h.95zm8.75 5.83a.252.252 0 0 1-.23.14c-.073 0-.167-.042-.28-.125a3.69 3.69 0 0 0-1.16-.56 3.613 3.613 0 0 0-1.02-.125c-.36 0-.688.052-.985.155-.297.103-.55.242-.76.415-.21.173-.372.375-.485.605a1.62 1.62 0 0 0-.17.725c0 .313.08.573.24.78.16.207.368.383.625.53.257.147.552.273.885.38.333.107.672.213 1.015.32.343.107.682.225 1.015.355.333.13.628.292.885.485s.465.43.625.71c.16.28.24.62.24 1.02 0 .433-.077.837-.23 1.21a2.696 2.696 0 0 1-.675.97 3.26 3.26 0 0 1-1.095.65c-.433.16-.93.24-1.49.24-.7 0-1.303-.112-1.81-.335a5.08 5.08 0 0 1-1.36-.875l.22-.34a.362.362 0 0 1 .115-.12.332.332 0 0 1 .175-.04c.087 0 .192.053.315.16.123.107.288.222.495.345.207.123.462.238.765.345.303.107.678.16 1.125.16.42 0 .79-.058 1.11-.175.32-.117.587-.275.8-.475.213-.2.375-.435.485-.705.11-.27.165-.555.165-.855 0-.333-.08-.61-.24-.83-.16-.22-.37-.407-.63-.56a4.403 4.403 0 0 0-.885-.39c-.33-.107-.668-.213-1.015-.32a15.79 15.79 0 0 1-1.015-.35 3.69 3.69 0 0 1-.885-.48 2.315 2.315 0 0 1-.63-.705c-.16-.277-.24-.622-.24-1.035 0-.353.077-.693.23-1.02.153-.327.372-.613.655-.86a3.22 3.22 0 0 1 1.035-.59c.407-.147.863-.22 1.37-.22.607 0 1.145.087 1.615.26.47.173.898.44 1.285.8l-.2.33zm10.01 2.74a4.28 4.28 0 0 0-.225-1.435 3.045 3.045 0 0 0-.635-1.075 2.77 2.77 0 0 0-.975-.675 3.21 3.21 0 0 0-1.245-.235c-.513 0-.973.08-1.38.24a3.02 3.02 0 0 0-1.055.69c-.297.3-.535.66-.715 1.08-.18.42-.3.89-.36 1.41h6.59zm-6.64.61v.19c0 .747.087 1.403.26 1.97.173.567.42 1.042.74 1.425s.707.672 1.16.865c.453.193.96.29 1.52.29.5 0 .933-.055 1.3-.165a4.845 4.845 0 0 0 1.52-.74c.147-.11.253-.165.32-.165a.23.23 0 0 1 .2.1l.26.32c-.16.2-.372.387-.635.56a4.532 4.532 0 0 1-.88.445 6.41 6.41 0 0 1-1.04.295c-.37.073-.742.11-1.115.11-.68 0-1.3-.118-1.86-.355a3.943 3.943 0 0 1-1.44-1.035c-.4-.453-.708-1.008-.925-1.665-.217-.657-.325-1.408-.325-2.255 0-.713.102-1.372.305-1.975a4.523 4.523 0 0 1 .88-1.56 4.01 4.01 0 0 1 1.41-1.025c.557-.247 1.188-.37 1.895-.37.56 0 1.08.097 1.56.29.48.193.897.475 1.25.845s.632.825.835 1.365c.203.54.305 1.16.305 1.86 0 .147-.02.247-.06.3-.04.053-.107.08-.2.08h-7.24zm11.14-9.18V155h-.96v-14.55h.96zM494.57 147.84c.627 0 1.188-.075 1.685-.225.497-.15.917-.365 1.26-.645.343-.28.605-.617.785-1.01.18-.393.27-.837.27-1.33 0-1.007-.328-1.753-.985-2.24-.657-.487-1.615-.73-2.875-.73h-2.59v6.18h2.45zm6.28 7.16h-.88a.658.658 0 0 1-.285-.055.563.563 0 0 1-.215-.205l-4.54-5.74a1.35 1.35 0 0 0-.165-.19.648.648 0 0 0-.19-.125.974.974 0 0 0-.25-.065 2.657 2.657 0 0 0-.355-.02h-1.85v6.4h-1.03v-14.15h3.62c1.627 0 2.845.315 3.655.945.81.63 1.215 1.555 1.215 2.775 0 .54-.093 1.033-.28 1.48a3.47 3.47 0 0 1-.805 1.175 4.2 4.2 0 0 1-1.27.825 6.018 6.018 0 0 1-1.675.43c.16.1.303.233.43.4l4.87 6.12zm8.28-5.98a4.28 4.28 0 0 0-.225-1.435 3.045 3.045 0 0 0-.635-1.075 2.77 2.77 0 0 0-.975-.675 3.21 3.21 0 0 0-1.245-.235c-.513 0-.973.08-1.38.24a3.02 3.02 0 0 0-1.055.69c-.297.3-.535.66-.715 1.08-.18.42-.3.89-.36 1.41h6.59zm-6.64.61v.19c0 .747.087 1.403.26 1.97.173.567.42 1.042.74 1.425s.707.672 1.16.865c.453.193.96.29 1.52.29.5 0 .933-.055 1.3-.165a4.845 4.845 0 0 0 1.52-.74c.147-.11.253-.165.32-.165a.23.23 0 0 1 .2.1l.26.32c-.16.2-.372.387-.635.56a4.532 4.532 0 0 1-.88.445 6.41 6.41 0 0 1-1.04.295c-.37.073-.742.11-1.115.11-.68 0-1.3-.118-1.86-.355a3.943 3.943 0 0 1-1.44-1.035c-.4-.453-.708-1.008-.925-1.665-.217-.657-.325-1.408-.325-2.255 0-.713.102-1.372.305-1.975a4.523 4.523 0 0 1 .88-1.56 4.01 4.01 0 0 1 1.41-1.025c.557-.247 1.188-.37 1.895-.37.56 0 1.08.097 1.56.29.48.193.897.475 1.25.845s.632.825.835 1.365c.203.54.305 1.16.305 1.86 0 .147-.02.247-.06.3-.04.053-.107.08-.2.08h-7.24zm13.34.97a3.27 3.27 0 0 0 1.14-.185c.333-.123.613-.295.84-.515.227-.22.4-.483.52-.79.12-.307.18-.647.18-1.02a2.75 2.75 0 0 0-.185-1.025 2.22 2.22 0 0 0-.53-.795c-.23-.22-.51-.39-.84-.51-.33-.12-.705-.18-1.125-.18-.42 0-.795.06-1.125.18-.33.12-.61.29-.84.51-.23.22-.405.485-.525.795-.12.31-.18.652-.18 1.025 0 .373.06.713.18 1.02.12.307.295.57.525.79.23.22.51.392.84.515.33.123.705.185 1.125.185zm3.72 5.07c0-.313-.082-.565-.245-.755a1.62 1.62 0 0 0-.655-.445 3.893 3.893 0 0 0-.945-.225c-.357-.043-.73-.075-1.12-.095l-1.175-.06a9.28 9.28 0 0 1-1.11-.12 4.56 4.56 0 0 0-.7.345 2.53 2.53 0 0 0-.55.445 1.984 1.984 0 0 0-.36.545c-.087.197-.13.408-.13.635 0 .293.075.565.225.815.15.25.37.467.66.65.29.183.645.328 1.065.435.42.107.903.16 1.45.16a5.62 5.62 0 0 0 1.415-.17 3.94 3.94 0 0 0 1.14-.48c.323-.207.577-.453.76-.74.183-.287.275-.6.275-.94zm1.04-10.18v.33c0 .147-.093.237-.28.27l-1.52.11c.187.253.33.537.43.85.1.313.15.653.15 1.02 0 .48-.085.915-.255 1.305-.17.39-.41.723-.72 1s-.683.492-1.12.645c-.437.153-.918.23-1.445.23a4.422 4.422 0 0 1-1.55-.26c-.28.16-.502.348-.665.565-.163.217-.245.432-.245.645 0 .287.102.507.305.66.203.153.47.265.8.335.33.07.707.115 1.13.135.423.02.855.042 1.295.065.44.023.872.065 1.295.125.423.06.8.165 1.13.315.33.15.597.36.8.63.203.27.305.628.305 1.075 0 .413-.103.81-.31 1.19a3.15 3.15 0 0 1-.895 1.01c-.39.293-.862.528-1.415.705a6.1 6.1 0 0 1-1.86.265c-.7 0-1.313-.072-1.84-.215-.527-.143-.968-.337-1.325-.58a2.54 2.54 0 0 1-.805-.845 2.05 2.05 0 0 1-.27-1.02c0-.527.173-.978.52-1.355.347-.377.82-.672 1.42-.885a1.932 1.932 0 0 1-.805-.495c-.203-.217-.305-.512-.305-.885 0-.14.027-.287.08-.44.053-.153.133-.305.24-.455.107-.15.237-.292.39-.425a2.99 2.99 0 0 1 .52-.36 2.965 2.965 0 0 1-1.105-1.09c-.263-.453-.395-.983-.395-1.59 0-.48.085-.915.255-1.305.17-.39.412-.725.725-1.005.313-.28.688-.497 1.125-.65a4.37 4.37 0 0 1 1.455-.23c.44 0 .845.053 1.215.16.37.107.702.257.995.45h2.55zm3.26-.44V155h-.95v-9.95h.95zm.41-3.43a.76.76 0 0 1-.075.335c-.05.103-.115.195-.195.275a.905.905 0 0 1-.28.19.84.84 0 0 1-.34.07.84.84 0 0 1-.34-.07.905.905 0 0 1-.47-.465.875.875 0 0 1 0-.68.89.89 0 0 1 .47-.475.84.84 0 0 1 .34-.07.84.84 0 0 1 .34.07.905.905 0 0 1 .475.475c.05.11.075.225.075.345zm6.92 3.27c.713 0 1.352.122 1.915.365a3.903 3.903 0 0 1 1.425 1.035c.387.447.682.985.885 1.615.203.63.305 1.335.305 2.115 0 .78-.102 1.483-.305 2.11a4.59 4.59 0 0 1-.885 1.61c-.387.447-.862.79-1.425 1.03-.563.24-1.202.36-1.915.36-.713 0-1.352-.12-1.915-.36a3.9 3.9 0 0 1-1.43-1.03 4.548 4.548 0 0 1-.89-1.61c-.203-.627-.305-1.33-.305-2.11 0-.78.102-1.485.305-2.115.203-.63.5-1.168.89-1.615a3.95 3.95 0 0 1 1.43-1.035c.563-.243 1.202-.365 1.915-.365zm0 9.49c.593 0 1.112-.102 1.555-.305a2.944 2.944 0 0 0 1.11-.875 3.86 3.86 0 0 0 .665-1.375c.147-.537.22-1.138.22-1.805 0-.66-.073-1.26-.22-1.8a3.908 3.908 0 0 0-.665-1.385 2.97 2.97 0 0 0-1.11-.885c-.443-.207-.962-.31-1.555-.31s-1.112.103-1.555.31a2.97 2.97 0 0 0-1.11.885c-.297.383-.52.845-.67 1.385a6.72 6.72 0 0 0-.225 1.8c0 .667.075 1.268.225 1.805.15.537.373.995.67 1.375.297.38.667.672 1.11.875.443.203.962.305 1.555.305zm8.13-7.59a5.64 5.64 0 0 1 1.595-1.38 3.972 3.972 0 0 1 2.015-.52c.547 0 1.028.087 1.445.26.417.173.762.423 1.035.75.273.327.48.72.62 1.18.14.46.21.98.21 1.56V155h-.96v-6.36c0-.933-.213-1.665-.64-2.195-.427-.53-1.077-.795-1.95-.795a3.53 3.53 0 0 0-1.815.495c-.563.33-1.065.788-1.505 1.375V155h-.96v-9.95h.53c.167 0 .263.083.29.25l.09 1.49zm15.66 3.4c-.947.033-1.762.108-2.445.225-.683.117-1.247.275-1.69.475-.443.2-.772.438-.985.715-.213.277-.32.592-.32.945 0 .333.055.622.165.865.11.243.257.443.44.6.183.157.395.272.635.345.24.073.49.11.75.11.387 0 .742-.042 1.065-.125.323-.083.623-.2.9-.35.277-.15.535-.328.775-.535.24-.207.477-.43.71-.67v-2.6zm-5.85-3.73c.52-.52 1.067-.913 1.64-1.18.573-.267 1.223-.4 1.95-.4.533 0 1 .085 1.4.255.4.17.732.413.995.73s.462.7.595 1.15c.133.45.2.952.2 1.505V155h-.38c-.2 0-.323-.093-.37-.28l-.14-1.28a10.44 10.44 0 0 1-.815.72 4.89 4.89 0 0 1-.845.54c-.293.147-.61.26-.95.34-.34.08-.713.12-1.12.12a3.3 3.3 0 0 1-.99-.15c-.32-.1-.605-.253-.855-.46a2.23 2.23 0 0 1-.6-.795c-.15-.323-.225-.712-.225-1.165 0-.42.12-.81.36-1.17.24-.36.617-.673 1.13-.94.513-.267 1.172-.48 1.975-.64.803-.16 1.768-.253 2.895-.28v-1.04c0-.92-.198-1.628-.595-2.125-.397-.497-.985-.745-1.765-.745-.48 0-.888.067-1.225.2-.337.133-.622.28-.855.44a5.39 5.39 0 0 0-.57.44c-.147.133-.27.2-.37.2a.302.302 0 0 1-.18-.05.45.45 0 0 1-.12-.13l-.17-.29zm11.01-6.01V155h-.96v-14.55h.96zM625.29 141.72h-4.97V155h-1.03v-13.28h-5v-.87h11v.87zm5.13 8.47c-.947.033-1.762.108-2.445.225-.683.117-1.247.275-1.69.475-.443.2-.772.438-.985.715-.213.277-.32.592-.32.945 0 .333.055.622.165.865.11.243.257.443.44.6.183.157.395.272.635.345.24.073.49.11.75.11.387 0 .742-.042 1.065-.125.323-.083.623-.2.9-.35.277-.15.535-.328.775-.535.24-.207.477-.43.71-.67v-2.6zm-5.85-3.73c.52-.52 1.067-.913 1.64-1.18.573-.267 1.223-.4 1.95-.4.533 0 1 .085 1.4.255.4.17.732.413.995.73s.462.7.595 1.15c.133.45.2.952.2 1.505V155h-.38c-.2 0-.323-.093-.37-.28l-.14-1.28a10.44 10.44 0 0 1-.815.72 4.89 4.89 0 0 1-.845.54c-.293.147-.61.26-.95.34-.34.08-.713.12-1.12.12a3.3 3.3 0 0 1-.99-.15c-.32-.1-.605-.253-.855-.46a2.23 2.23 0 0 1-.6-.795c-.15-.323-.225-.712-.225-1.165 0-.42.12-.81.36-1.17.24-.36.617-.673 1.13-.94.513-.267 1.172-.48 1.975-.64.803-.16 1.768-.253 2.895-.28v-1.04c0-.92-.198-1.628-.595-2.125-.397-.497-.985-.745-1.765-.745-.48 0-.888.067-1.225.2-.337.133-.622.28-.855.44a5.39 5.39 0 0 0-.57.44c-.147.133-.27.2-.37.2a.302.302 0 0 1-.18-.05.45.45 0 0 1-.12-.13l-.17-.29zm10.87.33a5.64 5.64 0 0 1 1.595-1.38 3.972 3.972 0 0 1 2.015-.52c.547 0 1.028.087 1.445.26.417.173.762.423 1.035.75.273.327.48.72.62 1.18.14.46.21.98.21 1.56V155h-.96v-6.36c0-.933-.213-1.665-.64-2.195-.427-.53-1.077-.795-1.95-.795a3.53 3.53 0 0 0-1.815.495c-.563.33-1.065.788-1.505 1.375V155h-.96v-9.95h.53c.167 0 .263.083.29.25l.09 1.49zm11 0a5.64 5.64 0 0 1 1.595-1.38 3.972 3.972 0 0 1 2.015-.52c.547 0 1.028.087 1.445.26.417.173.762.423 1.035.75.273.327.48.72.62 1.18.14.46.21.98.21 1.56V155h-.96v-6.36c0-.933-.213-1.665-.64-2.195-.427-.53-1.077-.795-1.95-.795a3.53 3.53 0 0 0-1.815.495c-.563.33-1.065.788-1.505 1.375V155h-.96v-9.95h.53c.167 0 .263.083.29.25l.09 1.49zm11.05-.06c.46-.56.985-1.007 1.575-1.34.59-.333 1.252-.5 1.985-.5.547 0 1.028.087 1.445.26.417.173.762.423 1.035.75.273.327.48.72.62 1.18.14.46.21.98.21 1.56V155h-.96v-6.36c0-.933-.213-1.665-.64-2.195-.427-.53-1.077-.795-1.95-.795a3.53 3.53 0 0 0-1.815.495c-.563.33-1.065.788-1.505 1.375V155h-.96v-14.55h.96v6.28zm17.02 2.29a4.28 4.28 0 0 0-.225-1.435 3.045 3.045 0 0 0-.635-1.075 2.77 2.77 0 0 0-.975-.675 3.21 3.21 0 0 0-1.245-.235c-.513 0-.973.08-1.38.24a3.02 3.02 0 0 0-1.055.69c-.297.3-.535.66-.715 1.08-.18.42-.3.89-.36 1.41h6.59zm-6.64.61v.19c0 .747.087 1.403.26 1.97.173.567.42 1.042.74 1.425s.707.672 1.16.865c.453.193.96.29 1.52.29.5 0 .933-.055 1.3-.165a4.845 4.845 0 0 0 1.52-.74c.147-.11.253-.165.32-.165a.23.23 0 0 1 .2.1l.26.32c-.16.2-.372.387-.635.56a4.532 4.532 0 0 1-.88.445 6.41 6.41 0 0 1-1.04.295c-.37.073-.742.11-1.115.11-.68 0-1.3-.118-1.86-.355a3.943 3.943 0 0 1-1.44-1.035c-.4-.453-.708-1.008-.925-1.665-.217-.657-.325-1.408-.325-2.255 0-.713.102-1.372.305-1.975a4.523 4.523 0 0 1 .88-1.56 4.01 4.01 0 0 1 1.41-1.025c.557-.247 1.188-.37 1.895-.37.56 0 1.08.097 1.56.29.48.193.897.475 1.25.845s.632.825.835 1.365c.203.54.305 1.16.305 1.86 0 .147-.02.247-.06.3-.04.053-.107.08-.2.08h-7.24zm11.14-9.18V155h-.96v-14.55h.96zm8.84 5.83a.252.252 0 0 1-.23.14c-.073 0-.167-.042-.28-.125a3.69 3.69 0 0 0-1.16-.56 3.613 3.613 0 0 0-1.02-.125c-.36 0-.688.052-.985.155-.297.103-.55.242-.76.415-.21.173-.372.375-.485.605a1.62 1.62 0 0 0-.17.725c0 .313.08.573.24.78.16.207.368.383.625.53.257.147.552.273.885.38.333.107.672.213 1.015.32.343.107.682.225 1.015.355.333.13.628.292.885.485s.465.43.625.71c.16.28.24.62.24 1.02 0 .433-.077.837-.23 1.21a2.696 2.696 0 0 1-.675.97 3.26 3.26 0 0 1-1.095.65c-.433.16-.93.24-1.49.24-.7 0-1.303-.112-1.81-.335a5.08 5.08 0 0 1-1.36-.875l.22-.34a.362.362 0 0 1 .115-.12.332.332 0 0 1 .175-.04c.087 0 .192.053.315.16.123.107.288.222.495.345.207.123.462.238.765.345.303.107.678.16 1.125.16.42 0 .79-.058 1.11-.175.32-.117.587-.275.8-.475.213-.2.375-.435.485-.705.11-.27.165-.555.165-.855 0-.333-.08-.61-.24-.83-.16-.22-.37-.407-.63-.56a4.403 4.403 0 0 0-.885-.39c-.33-.107-.668-.213-1.015-.32a15.79 15.79 0 0 1-1.015-.35 3.69 3.69 0 0 1-.885-.48 2.315 2.315 0 0 1-.63-.705c-.16-.277-.24-.622-.24-1.035 0-.353.077-.693.23-1.02.153-.327.372-.613.655-.86a3.22 3.22 0 0 1 1.035-.59c.407-.147.863-.22 1.37-.22.607 0 1.145.087 1.615.26.47.173.898.44 1.285.8l-.2.33zm10.01 2.74a4.28 4.28 0 0 0-.225-1.435 3.045 3.045 0 0 0-.635-1.075 2.77 2.77 0 0 0-.975-.675 3.21 3.21 0 0 0-1.245-.235c-.513 0-.973.08-1.38.24a3.02 3.02 0 0 0-1.055.69c-.297.3-.535.66-.715 1.08-.18.42-.3.89-.36 1.41h6.59zm-6.64.61v.19c0 .747.087 1.403.26 1.97.173.567.42 1.042.74 1.425s.707.672 1.16.865c.453.193.96.29 1.52.29.5 0 .933-.055 1.3-.165a4.845 4.845 0 0 0 1.52-.74c.147-.11.253-.165.32-.165a.23.23 0 0 1 .2.1l.26.32c-.16.2-.372.387-.635.56a4.532 4.532 0 0 1-.88.445 6.41 6.41 0 0 1-1.04.295c-.37.073-.742.11-1.115.11-.68 0-1.3-.118-1.86-.355a3.943 3.943 0 0 1-1.44-1.035c-.4-.453-.708-1.008-.925-1.665-.217-.657-.325-1.408-.325-2.255 0-.713.102-1.372.305-1.975a4.523 4.523 0 0 1 .88-1.56 4.01 4.01 0 0 1 1.41-1.025c.557-.247 1.188-.37 1.895-.37.56 0 1.08.097 1.56.29.48.193.897.475 1.25.845s.632.825.835 1.365c.203.54.305 1.16.305 1.86 0 .147-.02.247-.06.3-.04.053-.107.08-.2.08h-7.24z" fill="#1A171B"/><path fill="#DD1740" d="M85 116h1v12h-1zM247 116h1v12h-1zM391 116h1v12h-1zM219 52h1v12h-1zM473 52h1v12h-1zM652 52h1v12h-1zM525 116h1v12h-1zM656 116h1v12h-1z"/><path fill="#DD1740" d="M85 116h572v1H85zM220 52h433v1H220z"/></g></svg>