<?xml version="1.0" encoding="UTF-8" standalone="no"?>
<svg width="46px" height="10px" viewBox="0 0 46 10" version="1.1" xmlns="http://www.w3.org/2000/svg" xmlns:xlink="http://www.w3.org/1999/xlink" xmlns:sketch="http://www.bohemiancoding.com/sketch/ns">
    <!-- Generator: Sketch 3.5.2 (25235) - http://www.bohemiancoding.com/sketch -->
    <title>Tralalala</title>
    <desc>Created with Sketch.</desc>
    <defs></defs>
    <g id="Page-1" stroke="none" stroke-width="1" fill="none" fill-rule="evenodd" sketch:type="MSPage">
        <path d="M7.17773438,0.392578125 L7.17773438,1.41796875 L4.27734375,1.41796875 L4.27734375,9 L3.09375,9 L3.09375,1.41796875 L0.193359375,1.41796875 L0.193359375,0.392578125 L7.17773438,0.392578125 Z M7.69335938,2.72460938 L8.6953125,2.72460938 L8.6953125,3.80859375 C8.77734416,3.5976552 8.97851402,3.34082183 9.29882812,3.03808594 C9.61914223,2.73535005 9.98827916,2.58398438 10.40625,2.58398438 C10.4257813,2.58398438 10.4589841,2.58593748 10.5058594,2.58984375 C10.5527346,2.59375002 10.6328119,2.60156244 10.7460938,2.61328125 L10.7460938,3.7265625 C10.6835934,3.71484369 10.6259768,3.70703127 10.5732422,3.703125 C10.5205075,3.69921873 10.4628909,3.69726562 10.4003906,3.69726562 C9.86913797,3.69726562 9.46093893,3.86816235 9.17578125,4.20996094 C8.89062357,4.55175952 8.74804688,4.94531027 8.74804688,5.390625 L8.74804688,9 L7.69335938,9 L7.69335938,2.72460938 Z M12.8027344,8.05078125 C13.0253917,8.22656338 13.289061,8.31445312 13.59375,8.31445312 C13.9648456,8.31445312 14.324217,8.22851648 14.671875,8.05664062 C15.2578154,7.77148295 15.5507812,7.30469074 15.5507812,6.65625 L15.5507812,5.80664062 C15.4218744,5.88867229 15.2558604,5.95703098 15.0527344,6.01171875 C14.8496084,6.06640652 14.6503916,6.10546863 14.4550781,6.12890625 L13.8164062,6.2109375 C13.4335918,6.261719 13.1464853,6.34179633 12.9550781,6.45117188 C12.6308578,6.63476654 12.46875,6.92773236 12.46875,7.33007812 C12.46875,7.63476715 12.580077,7.87499912 12.8027344,8.05078125 L12.8027344,8.05078125 Z M15.0234375,5.19726562 C15.2656262,5.16601547 15.427734,5.06445398 15.5097656,4.89257812 C15.5566409,4.79882766 15.5800781,4.66406338 15.5800781,4.48828125 C15.5800781,4.12890445 15.4521497,3.86816487 15.1962891,3.70605469 C14.9404284,3.5439445 14.5742211,3.46289062 14.0976562,3.46289062 C13.5468722,3.46289062 13.1562512,3.61132664 12.9257812,3.90820312 C12.7968744,4.07226645 12.7128908,4.31640463 12.6738281,4.640625 L11.6894531,4.640625 C11.7089845,3.86718363 11.9599585,3.32910308 12.4423828,3.02636719 C12.9248071,2.7236313 13.4843718,2.57226562 14.1210938,2.57226562 C14.8593787,2.57226562 15.4589821,2.71288922 15.9199219,2.99414062 C16.3769554,3.27539203 16.6054688,3.71288766 16.6054688,4.30664062 L16.6054688,7.921875 C16.6054688,8.03125055 16.6279295,8.11914029 16.6728516,8.18554688 C16.7177737,8.25195346 16.8124993,8.28515625 16.9570312,8.28515625 C17.0039065,8.28515625 17.0566403,8.28222659 17.1152344,8.27636719 C17.1738284,8.27050778 17.2363278,8.26171881 17.3027344,8.25 L17.3027344,9.02929688 C17.1386711,9.07617211 17.0136723,9.10546869 16.9277344,9.1171875 C16.8417964,9.12890631 16.7246101,9.13476562 16.5761719,9.13476562 C16.2128888,9.13476562 15.9492196,9.00586066 15.7851562,8.74804688 C15.6992183,8.61132744 15.6386721,8.41797 15.6035156,8.16796875 C15.3886708,8.44922016 15.0800801,8.69335834 14.6777344,8.90039062 C14.2753886,9.10742291 13.8320337,9.2109375 13.3476562,9.2109375 C12.7656221,9.2109375 12.2900409,9.03418146 11.9208984,8.68066406 C11.551756,8.32714667 11.3671875,7.88476828 11.3671875,7.35351562 C11.3671875,6.77148146 11.5488263,6.3203141 11.9121094,6 C12.2753924,5.6796859 12.7519502,5.48242225 13.3417969,5.40820312 L15.0234375,5.19726562 Z M18.3632812,0.392578125 L19.4179688,0.392578125 L19.4179688,9 L18.3632812,9 L18.3632812,0.392578125 Z M22.1425781,8.05078125 C22.3652355,8.22656338 22.6289047,8.31445312 22.9335938,8.31445312 C23.3046894,8.31445312 23.6640608,8.22851648 24.0117188,8.05664062 C24.5976592,7.77148295 24.890625,7.30469074 24.890625,6.65625 L24.890625,5.80664062 C24.7617181,5.88867229 24.5957041,5.95703098 24.3925781,6.01171875 C24.1894521,6.06640652 23.9902354,6.10546863 23.7949219,6.12890625 L23.15625,6.2109375 C22.7734356,6.261719 22.4863291,6.34179633 22.2949219,6.45117188 C21.9707015,6.63476654 21.8085938,6.92773236 21.8085938,7.33007812 C21.8085938,7.63476715 21.9199208,7.87499912 22.1425781,8.05078125 L22.1425781,8.05078125 Z M24.3632812,5.19726562 C24.60547,5.16601547 24.7675777,5.06445398 24.8496094,4.89257812 C24.8964846,4.79882766 24.9199219,4.66406338 24.9199219,4.48828125 C24.9199219,4.12890445 24.7919935,3.86816487 24.5361328,3.70605469 C24.2802722,3.5439445 23.9140649,3.46289062 23.4375,3.46289062 C22.886716,3.46289062 22.4960949,3.61132664 22.265625,3.90820312 C22.1367181,4.07226645 22.0527346,4.31640463 22.0136719,4.640625 L21.0292969,4.640625 C21.0488282,3.86718363 21.2998023,3.32910308 21.7822266,3.02636719 C22.2646508,2.7236313 22.8242156,2.57226562 23.4609375,2.57226562 C24.1992224,2.57226562 24.7988258,2.71288922 25.2597656,2.99414062 C25.7167992,3.27539203 25.9453125,3.71288766 25.9453125,4.30664062 L25.9453125,7.921875 C25.9453125,8.03125055 25.9677732,8.11914029 26.0126953,8.18554688 C26.0576174,8.25195346 26.152343,8.28515625 26.296875,8.28515625 C26.3437502,8.28515625 26.3964841,8.28222659 26.4550781,8.27636719 C26.5136722,8.27050778 26.5761715,8.26171881 26.6425781,8.25 L26.6425781,9.02929688 C26.4785148,9.07617211 26.3535161,9.10546869 26.2675781,9.1171875 C26.1816402,9.12890631 26.0644539,9.13476562 25.9160156,9.13476562 C25.5527326,9.13476562 25.2890633,9.00586066 25.125,8.74804688 C25.0390621,8.61132744 24.9785158,8.41797 24.9433594,8.16796875 C24.7285146,8.44922016 24.4199239,8.69335834 24.0175781,8.90039062 C23.6152324,9.10742291 23.1718774,9.2109375 22.6875,9.2109375 C22.1054658,9.2109375 21.6298847,9.03418146 21.2607422,8.68066406 C20.8915997,8.32714667 20.7070312,7.88476828 20.7070312,7.35351562 C20.7070312,6.77148146 20.8886701,6.3203141 21.2519531,6 C21.6152362,5.6796859 22.0917939,5.48242225 22.6816406,5.40820312 L24.3632812,5.19726562 Z M27.703125,0.392578125 L28.7578125,0.392578125 L28.7578125,9 L27.703125,9 L27.703125,0.392578125 Z M31.4824219,8.05078125 C31.7050792,8.22656338 31.9687485,8.31445312 32.2734375,8.31445312 C32.6445331,8.31445312 33.0039045,8.22851648 33.3515625,8.05664062 C33.9375029,7.77148295 34.2304688,7.30469074 34.2304688,6.65625 L34.2304688,5.80664062 C34.1015619,5.88867229 33.9355479,5.95703098 33.7324219,6.01171875 C33.5292959,6.06640652 33.3300791,6.10546863 33.1347656,6.12890625 L32.4960938,6.2109375 C32.1132793,6.261719 31.8261728,6.34179633 31.6347656,6.45117188 C31.3105453,6.63476654 31.1484375,6.92773236 31.1484375,7.33007812 C31.1484375,7.63476715 31.2597645,7.87499912 31.4824219,8.05078125 L31.4824219,8.05078125 Z M33.703125,5.19726562 C33.9453137,5.16601547 34.1074215,5.06445398 34.1894531,4.89257812 C34.2363284,4.79882766 34.2597656,4.66406338 34.2597656,4.48828125 C34.2597656,4.12890445 34.1318372,3.86816487 33.8759766,3.70605469 C33.6201159,3.5439445 33.2539086,3.46289062 32.7773438,3.46289062 C32.2265597,3.46289062 31.8359387,3.61132664 31.6054688,3.90820312 C31.4765619,4.07226645 31.3925783,4.31640463 31.3535156,4.640625 L30.3691406,4.640625 C30.388672,3.86718363 30.639646,3.32910308 31.1220703,3.02636719 C31.6044946,2.7236313 32.1640593,2.57226562 32.8007812,2.57226562 C33.5390662,2.57226562 34.1386696,2.71288922 34.5996094,2.99414062 C35.0566429,3.27539203 35.2851562,3.71288766 35.2851562,4.30664062 L35.2851562,7.921875 C35.2851562,8.03125055 35.307617,8.11914029 35.3525391,8.18554688 C35.3974612,8.25195346 35.4921868,8.28515625 35.6367188,8.28515625 C35.683594,8.28515625 35.7363278,8.28222659 35.7949219,8.27636719 C35.8535159,8.27050778 35.9160153,8.26171881 35.9824219,8.25 L35.9824219,9.02929688 C35.8183586,9.07617211 35.6933598,9.10546869 35.6074219,9.1171875 C35.5214839,9.12890631 35.4042976,9.13476562 35.2558594,9.13476562 C34.8925763,9.13476562 34.6289071,9.00586066 34.4648438,8.74804688 C34.3789058,8.61132744 34.3183596,8.41797 34.2832031,8.16796875 C34.0683583,8.44922016 33.7597676,8.69335834 33.3574219,8.90039062 C32.9550761,9.10742291 32.5117212,9.2109375 32.0273438,9.2109375 C31.4453096,9.2109375 30.9697284,9.03418146 30.6005859,8.68066406 C30.2314435,8.32714667 30.046875,7.88476828 30.046875,7.35351562 C30.046875,6.77148146 30.2285138,6.3203141 30.5917969,6 C30.9550799,5.6796859 31.4316377,5.48242225 32.0214844,5.40820312 L33.703125,5.19726562 Z M37.0429688,0.392578125 L38.0976562,0.392578125 L38.0976562,9 L37.0429688,9 L37.0429688,0.392578125 Z M40.8222656,8.05078125 C41.044923,8.22656338 41.3085922,8.31445312 41.6132812,8.31445312 C41.9843769,8.31445312 42.3437483,8.22851648 42.6914062,8.05664062 C43.2773467,7.77148295 43.5703125,7.30469074 43.5703125,6.65625 L43.5703125,5.80664062 C43.4414056,5.88867229 43.2753916,5.95703098 43.0722656,6.01171875 C42.8691396,6.06640652 42.6699229,6.10546863 42.4746094,6.12890625 L41.8359375,6.2109375 C41.4531231,6.261719 41.1660166,6.34179633 40.9746094,6.45117188 C40.650389,6.63476654 40.4882812,6.92773236 40.4882812,7.33007812 C40.4882812,7.63476715 40.5996083,7.87499912 40.8222656,8.05078125 L40.8222656,8.05078125 Z M43.0429688,5.19726562 C43.2851575,5.16601547 43.4472652,5.06445398 43.5292969,4.89257812 C43.5761721,4.79882766 43.5996094,4.66406338 43.5996094,4.48828125 C43.5996094,4.12890445 43.471681,3.86816487 43.2158203,3.70605469 C42.9599597,3.5439445 42.5937524,3.46289062 42.1171875,3.46289062 C41.5664035,3.46289062 41.1757824,3.61132664 40.9453125,3.90820312 C40.8164056,4.07226645 40.7324221,4.31640463 40.6933594,4.640625 L39.7089844,4.640625 C39.7285157,3.86718363 39.9794898,3.32910308 40.4619141,3.02636719 C40.9443383,2.7236313 41.5039031,2.57226562 42.140625,2.57226562 C42.8789099,2.57226562 43.4785133,2.71288922 43.9394531,2.99414062 C44.3964867,3.27539203 44.625,3.71288766 44.625,4.30664062 L44.625,7.921875 C44.625,8.03125055 44.6474607,8.11914029 44.6923828,8.18554688 C44.7373049,8.25195346 44.8320305,8.28515625 44.9765625,8.28515625 C45.0234377,8.28515625 45.0761716,8.28222659 45.1347656,8.27636719 C45.1933597,8.27050778 45.255859,8.26171881 45.3222656,8.25 L45.3222656,9.02929688 C45.1582023,9.07617211 45.0332036,9.10546869 44.9472656,9.1171875 C44.8613277,9.12890631 44.7441414,9.13476562 44.5957031,9.13476562 C44.2324201,9.13476562 43.9687508,9.00586066 43.8046875,8.74804688 C43.7187496,8.61132744 43.6582033,8.41797 43.6230469,8.16796875 C43.4082021,8.44922016 43.0996114,8.69335834 42.6972656,8.90039062 C42.2949199,9.10742291 41.8515649,9.2109375 41.3671875,9.2109375 C40.7851533,9.2109375 40.3095722,9.03418146 39.9404297,8.68066406 C39.5712872,8.32714667 39.3867188,7.88476828 39.3867188,7.35351562 C39.3867188,6.77148146 39.5683576,6.3203141 39.9316406,6 C40.2949237,5.6796859 40.7714814,5.48242225 41.3613281,5.40820312 L43.0429688,5.19726562 Z" id="Tralalala" fill="#000000" sketch:type="MSShapeGroup"></path>
    </g>
</svg>